<svg width="546" height="91" viewBox="0 0 546 91" fill="none" xmlns="http://www.w3.org/2000/svg">
<g filter="url(#filter0_d_363_16)">
<path d="M49.4992 0L489.492 11.0941L538 67.1021L0 83L49.4992 0Z" fill="#23CF51"/>
</g>
<path d="M43.74 51V29.4H61.14C61.9 29.4 62.6 29.59 63.24 29.97C63.88 30.35 64.39 30.86 64.77 31.5C65.15 32.12 65.34 32.81 65.34 33.57V46.83C65.34 47.59 65.15 48.29 64.77 48.93C64.39 49.55 63.88 50.05 63.24 50.43C62.6 50.81 61.9 51 61.14 51H43.74ZM48.03 47.01H60.96C61.06 47.01 61.15 46.98 61.23 46.92C61.31 46.84 61.35 46.75 61.35 46.65V33.75C61.35 33.65 61.31 33.57 61.23 33.51C61.15 33.43 61.06 33.39 60.96 33.39H48.03C47.93 33.39 47.84 33.43 47.76 33.51C47.7 33.57 47.67 33.65 47.67 33.75V46.65C47.67 46.75 47.7 46.84 47.76 46.92C47.84 46.98 47.93 47.01 48.03 47.01ZM72.6895 51C71.9295 51 71.2395 50.81 70.6195 50.43C69.9995 50.05 69.4995 49.55 69.1195 48.93C68.7395 48.31 68.5495 47.62 68.5495 46.86V37.74C68.5495 36.98 68.7395 36.29 69.1195 35.67C69.4995 35.05 69.9995 34.55 70.6195 34.17C71.2395 33.79 71.9295 33.6 72.6895 33.6H82.0795C82.8395 33.6 83.5295 33.79 84.1495 34.17C84.7895 34.55 85.2895 35.05 85.6495 35.67C86.0295 36.29 86.2195 36.98 86.2195 37.74V44.28H72.4795V46.71C72.4795 46.81 72.5095 46.9 72.5695 46.98C72.6495 47.04 72.7395 47.07 72.8395 47.07H86.2195V51H72.6895ZM72.4795 40.74H82.2895V37.89C82.2895 37.79 82.2495 37.71 82.1695 37.65C82.1095 37.57 82.0295 37.53 81.9295 37.53H72.8395C72.7395 37.53 72.6495 37.57 72.5695 37.65C72.5095 37.71 72.4795 37.79 72.4795 37.89V40.74ZM89.1752 51V37.74C89.1752 36.98 89.3652 36.29 89.7452 35.67C90.1252 35.05 90.6252 34.55 91.2452 34.17C91.8852 33.79 92.5752 33.6 93.3152 33.6H102.975V37.53H93.4652C93.3652 37.53 93.2752 37.57 93.1952 37.65C93.1352 37.71 93.1052 37.79 93.1052 37.89V51H89.1752ZM118.219 51C117.459 51 116.759 50.81 116.119 50.43C115.499 50.05 114.999 49.55 114.619 48.93C114.239 48.29 114.049 47.59 114.049 46.83V45.18H118.009V46.65C118.009 46.75 118.039 46.84 118.099 46.92C118.179 46.98 118.269 47.01 118.369 47.01H131.299C131.399 47.01 131.479 46.98 131.539 46.92C131.619 46.84 131.659 46.75 131.659 46.65V42.54C131.659 42.44 131.619 42.36 131.539 42.3C131.479 42.24 131.399 42.21 131.299 42.21H118.219C117.459 42.21 116.759 42.02 116.119 41.64C115.499 41.26 114.999 40.76 114.619 40.14C114.239 39.5 114.049 38.79 114.049 38.01V33.57C114.049 32.81 114.239 32.12 114.619 31.5C114.999 30.86 115.499 30.35 116.119 29.97C116.759 29.59 117.459 29.4 118.219 29.4H131.479C132.239 29.4 132.929 29.59 133.549 29.97C134.189 30.35 134.699 30.86 135.079 31.5C135.459 32.12 135.649 32.81 135.649 33.57V35.22H131.659V33.75C131.659 33.65 131.619 33.57 131.539 33.51C131.479 33.43 131.399 33.39 131.299 33.39H118.369C118.269 33.39 118.179 33.43 118.099 33.51C118.039 33.57 118.009 33.65 118.009 33.75V37.86C118.009 37.96 118.039 38.04 118.099 38.1C118.179 38.16 118.269 38.19 118.369 38.19H131.479C132.239 38.19 132.929 38.38 133.549 38.76C134.189 39.14 134.699 39.65 135.079 40.29C135.459 40.91 135.649 41.61 135.649 42.39V46.83C135.649 47.59 135.459 48.29 135.079 48.93C134.699 49.55 134.189 50.05 133.549 50.43C132.929 50.81 132.239 51 131.479 51H118.219ZM142.914 51C142.154 51 141.464 50.81 140.844 50.43C140.224 50.05 139.724 49.55 139.344 48.93C138.964 48.31 138.774 47.62 138.774 46.86V37.74C138.774 36.98 138.964 36.29 139.344 35.67C139.724 35.05 140.224 34.55 140.844 34.17C141.464 33.79 142.154 33.6 142.914 33.6H152.304C153.064 33.6 153.754 33.79 154.374 34.17C155.014 34.55 155.514 35.05 155.874 35.67C156.254 36.29 156.444 36.98 156.444 37.74V46.86C156.444 47.62 156.254 48.31 155.874 48.93C155.514 49.55 155.024 50.05 154.404 50.43C153.784 50.81 153.084 51 152.304 51H142.914ZM143.064 47.07H152.154C152.254 47.07 152.334 47.04 152.394 46.98C152.474 46.9 152.514 46.81 152.514 46.71V37.89C152.514 37.79 152.474 37.71 152.394 37.65C152.334 37.57 152.254 37.53 152.154 37.53H143.064C142.964 37.53 142.874 37.57 142.794 37.65C142.734 37.71 142.704 37.79 142.704 37.89V46.71C142.704 46.81 142.734 46.9 142.794 46.98C142.874 47.04 142.964 47.07 143.064 47.07ZM159.606 51V32.04C159.606 31.28 159.796 30.59 160.176 29.97C160.556 29.35 161.056 28.85 161.676 28.47C162.296 28.09 162.986 27.9 163.746 27.9H170.316V31.86H163.896C163.796 31.86 163.706 31.9 163.626 31.98C163.566 32.04 163.536 32.12 163.536 32.22V33.6H170.316V37.53H163.536V51H159.606ZM177.31 51C176.55 51 175.86 50.81 175.24 50.43C174.62 50.05 174.12 49.55 173.74 48.93C173.36 48.31 173.17 47.62 173.17 46.86V28.26H177.1V33.6H183.88V37.53H177.1V46.71C177.1 46.81 177.13 46.9 177.19 46.98C177.27 47.04 177.36 47.07 177.46 47.07H183.88V51H177.31ZM192.624 51L185.784 33.6H189.954L194.184 43.86L198.624 33.6H202.704L207.444 43.92L211.374 33.6H215.544L209.004 51H205.944L200.694 39.39L195.684 51H192.624ZM221.577 51C220.817 51 220.117 50.81 219.477 50.43C218.857 50.05 218.357 49.55 217.977 48.93C217.617 48.31 217.437 47.62 217.437 46.86V40.32H231.177V37.89C231.177 37.79 231.137 37.71 231.057 37.65C230.997 37.57 230.917 37.53 230.817 37.53H217.437V33.6H230.967C231.727 33.6 232.417 33.79 233.037 34.17C233.677 34.55 234.177 35.05 234.537 35.67C234.917 36.29 235.107 36.98 235.107 37.74V51H221.577ZM221.727 47.07H231.177V43.86H221.367V46.71C221.367 46.81 221.397 46.9 221.457 46.98C221.537 47.04 221.627 47.07 221.727 47.07ZM237.652 51V37.74C237.652 36.98 237.842 36.29 238.222 35.67C238.602 35.05 239.102 34.55 239.722 34.17C240.362 33.79 241.052 33.6 241.792 33.6H251.452V37.53H241.942C241.842 37.53 241.752 37.57 241.672 37.65C241.612 37.71 241.582 37.79 241.582 37.89V51H237.652ZM257.641 51C256.881 51 256.191 50.81 255.571 50.43C254.951 50.05 254.451 49.55 254.071 48.93C253.691 48.31 253.501 47.62 253.501 46.86V37.74C253.501 36.98 253.691 36.29 254.071 35.67C254.451 35.05 254.951 34.55 255.571 34.17C256.191 33.79 256.881 33.6 257.641 33.6H267.031C267.791 33.6 268.481 33.79 269.101 34.17C269.741 34.55 270.241 35.05 270.601 35.67C270.981 36.29 271.171 36.98 271.171 37.74V44.28H257.431V46.71C257.431 46.81 257.461 46.9 257.521 46.98C257.601 47.04 257.691 47.07 257.791 47.07H271.171V51H257.641ZM257.431 40.74H267.241V37.89C267.241 37.79 267.201 37.71 267.121 37.65C267.061 37.57 266.981 37.53 266.881 37.53H257.791C257.691 37.53 257.601 37.57 257.521 37.65C257.461 37.71 257.431 37.79 257.431 37.89V40.74ZM274.332 51V32.04C274.332 31.28 274.522 30.59 274.902 29.97C275.282 29.35 275.782 28.85 276.402 28.47C277.022 28.09 277.712 27.9 278.472 27.9H285.042V31.86H278.622C278.522 31.86 278.432 31.9 278.352 31.98C278.292 32.04 278.262 32.12 278.262 32.22V33.6H285.042V37.53H278.262V51H274.332ZM287.193 51V37.74C287.193 36.98 287.383 36.29 287.763 35.67C288.143 35.05 288.643 34.55 289.263 34.17C289.903 33.79 290.593 33.6 291.333 33.6H300.993V37.53H291.483C291.383 37.53 291.293 37.57 291.213 37.65C291.153 37.71 291.123 37.79 291.123 37.89V51H287.193ZM307.182 51C306.422 51 305.732 50.81 305.112 50.43C304.492 50.05 303.992 49.55 303.612 48.93C303.232 48.31 303.042 47.62 303.042 46.86V37.74C303.042 36.98 303.232 36.29 303.612 35.67C303.992 35.05 304.492 34.55 305.112 34.17C305.732 33.79 306.422 33.6 307.182 33.6H316.572C317.332 33.6 318.022 33.79 318.642 34.17C319.282 34.55 319.782 35.05 320.142 35.67C320.522 36.29 320.712 36.98 320.712 37.74V44.28H306.972V46.71C306.972 46.81 307.002 46.9 307.062 46.98C307.142 47.04 307.232 47.07 307.332 47.07H320.712V51H307.182ZM306.972 40.74H316.782V37.89C316.782 37.79 316.742 37.71 316.662 37.65C316.602 37.57 316.522 37.53 316.422 37.53H307.332C307.232 37.53 307.142 37.57 307.062 37.65C307.002 37.71 306.972 37.79 306.972 37.89V40.74ZM327.983 51C327.223 51 326.523 50.81 325.883 50.43C325.263 50.05 324.763 49.55 324.383 48.93C324.023 48.31 323.843 47.62 323.843 46.86V40.32H337.583V37.89C337.583 37.79 337.543 37.71 337.463 37.65C337.403 37.57 337.323 37.53 337.223 37.53H323.843V33.6H337.373C338.133 33.6 338.823 33.79 339.443 34.17C340.083 34.55 340.583 35.05 340.943 35.67C341.323 36.29 341.513 36.98 341.513 37.74V51H327.983ZM328.133 47.07H337.583V43.86H327.773V46.71C327.773 46.81 327.803 46.9 327.863 46.98C327.943 47.04 328.033 47.07 328.133 47.07ZM344.528 51V27.9H348.458V40.32H351.548L357.758 33.6H361.958V34.68L355.028 42.3L361.928 49.92V51H357.758L351.548 44.28H348.458V51H344.528ZM363.923 37.47V33.54H367.853V37.47H363.923ZM363.923 51V47.07H367.853V51H363.923ZM380.332 51V29.4H400.222V33.39H384.322V38.19H397.102V42.21H384.322V51H380.332ZM405.971 51C405.211 51 404.521 50.81 403.901 50.43C403.281 50.05 402.781 49.55 402.401 48.93C402.021 48.31 401.831 47.62 401.831 46.86V27.87H405.791V46.71C405.791 46.81 405.821 46.9 405.881 46.98C405.961 47.04 406.051 47.07 406.151 47.07H409.481V51H405.971ZM415.844 51C415.084 51 414.394 50.81 413.774 50.43C413.154 50.05 412.654 49.55 412.274 48.93C411.894 48.31 411.704 47.62 411.704 46.86V37.74C411.704 36.98 411.894 36.29 412.274 35.67C412.654 35.05 413.154 34.55 413.774 34.17C414.394 33.79 415.084 33.6 415.844 33.6H425.234C425.994 33.6 426.684 33.79 427.304 34.17C427.944 34.55 428.444 35.05 428.804 35.67C429.184 36.29 429.374 36.98 429.374 37.74V46.86C429.374 47.62 429.184 48.31 428.804 48.93C428.444 49.55 427.954 50.05 427.334 50.43C426.714 50.81 426.014 51 425.234 51H415.844ZM415.994 47.07H425.084C425.184 47.07 425.264 47.04 425.324 46.98C425.404 46.9 425.444 46.81 425.444 46.71V37.89C425.444 37.79 425.404 37.71 425.324 37.65C425.264 37.57 425.184 37.53 425.084 37.53H415.994C415.894 37.53 415.804 37.57 415.724 37.65C415.664 37.71 415.634 37.79 415.634 37.89V46.71C415.634 46.81 415.664 46.9 415.724 46.98C415.804 47.04 415.894 47.07 415.994 47.07ZM431.861 51V37.74C431.861 36.98 432.051 36.29 432.431 35.67C432.811 35.05 433.311 34.55 433.931 34.17C434.571 33.79 435.261 33.6 436.001 33.6H445.661V37.53H436.151C436.051 37.53 435.961 37.57 435.881 37.65C435.821 37.71 435.791 37.79 435.791 37.89V51H431.861ZM452.085 51C451.325 51 450.625 50.81 449.985 50.43C449.365 50.05 448.865 49.55 448.485 48.93C448.125 48.31 447.945 47.62 447.945 46.86V40.32H461.685V37.89C461.685 37.79 461.645 37.71 461.565 37.65C461.505 37.57 461.425 37.53 461.325 37.53H447.945V33.6H461.475C462.235 33.6 462.925 33.79 463.545 34.17C464.185 34.55 464.685 35.05 465.045 35.67C465.425 36.29 465.615 36.98 465.615 37.74V51H452.085ZM452.235 47.07H461.685V43.86H451.875V46.71C451.875 46.81 451.905 46.9 451.965 46.98C452.045 47.04 452.135 47.07 452.235 47.07ZM468.775 51V33.6H472.705V51H468.775ZM468.775 31.86V27.9H472.705V31.86H468.775ZM476.188 51V33.6H489.718C490.478 33.6 491.168 33.79 491.788 34.17C492.428 34.55 492.928 35.05 493.288 35.67C493.668 36.29 493.858 36.98 493.858 37.74V51H489.928V37.89C489.928 37.79 489.888 37.71 489.808 37.65C489.748 37.57 489.668 37.53 489.568 37.53H480.478C480.378 37.53 480.288 37.57 480.208 37.65C480.148 37.71 480.118 37.79 480.118 37.89V51H476.188Z" fill="white"/>
<defs>
<filter id="filter0_d_363_16" x="0" y="0" width="546" height="91" filterUnits="userSpaceOnUse" color-interpolation-filters="sRGB">
<feFlood flood-opacity="0" result="BackgroundImageFix"/>
<feColorMatrix in="SourceAlpha" type="matrix" values="0 0 0 0 0 0 0 0 0 0 0 0 0 0 0 0 0 0 127 0" result="hardAlpha"/>
<feOffset dx="4" dy="4"/>
<feGaussianBlur stdDeviation="2"/>
<feComposite in2="hardAlpha" operator="out"/>
<feColorMatrix type="matrix" values="0 0 0 0 0 0 0 0 0 0 0 0 0 0 0 0 0 0 0.25 0"/>
<feBlend mode="normal" in2="BackgroundImageFix" result="effect1_dropShadow_363_16"/>
<feBlend mode="normal" in="SourceGraphic" in2="effect1_dropShadow_363_16" result="shape"/>
</filter>
</defs>
</svg>
