<svg width="330" height="72" viewBox="0 0 330 72" fill="none" xmlns="http://www.w3.org/2000/svg">
<g filter="url(#filter0_d_362_9)">
<path d="M0 0.5L322 17.7667L316.25 64L7.41992 48.428L0 0.5Z" fill="#23CF51"/>
</g>
<path d="M15.74 44V22.4H33.14C33.9 22.4 34.6 22.59 35.24 22.97C35.88 23.35 36.39 23.86 36.77 24.5C37.15 25.12 37.34 25.81 37.34 26.57V39.83C37.34 40.59 37.15 41.29 36.77 41.93C36.39 42.55 35.88 43.05 35.24 43.43C34.6 43.81 33.9 44 33.14 44H15.74ZM20.03 40.01H32.96C33.06 40.01 33.15 39.98 33.23 39.92C33.31 39.84 33.35 39.75 33.35 39.65V26.75C33.35 26.65 33.31 26.57 33.23 26.51C33.15 26.43 33.06 26.39 32.96 26.39H20.03C19.93 26.39 19.84 26.43 19.76 26.51C19.7 26.57 19.67 26.65 19.67 26.75V39.65C19.67 39.75 19.7 39.84 19.76 39.92C19.84 39.98 19.93 40.01 20.03 40.01ZM44.6895 44C43.9295 44 43.2395 43.81 42.6195 43.43C41.9995 43.05 41.4995 42.55 41.1195 41.93C40.7395 41.31 40.5495 40.62 40.5495 39.86V30.74C40.5495 29.98 40.7395 29.29 41.1195 28.67C41.4995 28.05 41.9995 27.55 42.6195 27.17C43.2395 26.79 43.9295 26.6 44.6895 26.6H54.0795C54.8395 26.6 55.5295 26.79 56.1495 27.17C56.7895 27.55 57.2895 28.05 57.6495 28.67C58.0295 29.29 58.2195 29.98 58.2195 30.74V37.28H44.4795V39.71C44.4795 39.81 44.5095 39.9 44.5695 39.98C44.6495 40.04 44.7395 40.07 44.8395 40.07H58.2195V44H44.6895ZM44.4795 33.74H54.2895V30.89C54.2895 30.79 54.2495 30.71 54.1695 30.65C54.1095 30.57 54.0295 30.53 53.9295 30.53H44.8395C44.7395 30.53 44.6495 30.57 44.5695 30.65C44.5095 30.71 44.4795 30.79 44.4795 30.89V33.74ZM61.1752 44V30.74C61.1752 29.98 61.3652 29.29 61.7452 28.67C62.1252 28.05 62.6252 27.55 63.2452 27.17C63.8852 26.79 64.5752 26.6 65.3152 26.6H74.9752V30.53H65.4652C65.3652 30.53 65.2752 30.57 65.1952 30.65C65.1352 30.71 65.1052 30.79 65.1052 30.89V44H61.1752ZM86.199 44V22.4H106.089V26.39H90.189V31.19H102.969V35.21H90.189V40.01H106.089V44H86.199ZM108.988 44V30.74C108.988 29.98 109.178 29.29 109.558 28.67C109.938 28.05 110.438 27.55 111.058 27.17C111.698 26.79 112.388 26.6 113.128 26.6H122.788V30.53H113.278C113.178 30.53 113.088 30.57 113.008 30.65C112.948 30.71 112.918 30.79 112.918 30.89V44H108.988ZM124.927 44V20.9H128.857V26.6H138.457C139.217 26.6 139.907 26.79 140.527 27.17C141.167 27.55 141.667 28.05 142.027 28.67C142.407 29.29 142.597 29.98 142.597 30.74V39.86C142.597 40.62 142.407 41.31 142.027 41.93C141.667 42.55 141.167 43.05 140.527 43.43C139.907 43.81 139.217 44 138.457 44H124.927ZM129.217 40.07H138.307C138.407 40.07 138.487 40.04 138.547 39.98C138.627 39.9 138.667 39.81 138.667 39.71V30.89C138.667 30.79 138.627 30.71 138.547 30.65C138.487 30.57 138.407 30.53 138.307 30.53H129.217C129.117 30.53 129.027 30.57 128.947 30.65C128.887 30.71 128.857 30.79 128.857 30.89V39.71C128.857 39.81 128.887 39.9 128.947 39.98C129.027 40.04 129.117 40.07 129.217 40.07ZM148.811 44C148.051 44 147.351 43.81 146.711 43.43C146.091 43.05 145.591 42.55 145.211 41.93C144.851 41.31 144.671 40.62 144.671 39.86V33.32H158.411V30.89C158.411 30.79 158.371 30.71 158.291 30.65C158.231 30.57 158.151 30.53 158.051 30.53H144.671V26.6H158.201C158.961 26.6 159.651 26.79 160.271 27.17C160.911 27.55 161.411 28.05 161.771 28.67C162.151 29.29 162.341 29.98 162.341 30.74V44H148.811ZM148.961 40.07H158.411V36.86H148.601V39.71C148.601 39.81 148.631 39.9 148.691 39.98C148.771 40.04 148.861 40.07 148.961 40.07ZM169.671 44C168.911 44 168.211 43.81 167.571 43.43C166.951 43.05 166.451 42.55 166.071 41.93C165.711 41.31 165.531 40.62 165.531 39.86V26.6H169.461V39.71C169.461 39.81 169.491 39.9 169.551 39.98C169.631 40.04 169.721 40.07 169.821 40.07H178.911C179.011 40.07 179.091 40.04 179.151 39.98C179.231 39.9 179.271 39.81 179.271 39.71V26.6H183.201V39.86C183.201 40.62 183.011 41.31 182.631 41.93C182.271 42.55 181.781 43.05 181.161 43.43C180.541 43.81 179.841 44 179.061 44H169.671ZM189.826 44C189.066 44 188.376 43.81 187.756 43.43C187.136 43.05 186.636 42.55 186.256 41.93C185.876 41.31 185.686 40.62 185.686 39.86V30.74C185.686 29.98 185.876 29.29 186.256 28.67C186.636 28.05 187.136 27.55 187.756 27.17C188.376 26.79 189.066 26.6 189.826 26.6H199.216C199.976 26.6 200.666 26.79 201.286 27.17C201.926 27.55 202.426 28.05 202.786 28.67C203.166 29.29 203.356 29.98 203.356 30.74V37.28H189.616V39.71C189.616 39.81 189.646 39.9 189.706 39.98C189.786 40.04 189.876 40.07 189.976 40.07H203.356V44H189.826ZM189.616 33.74H199.426V30.89C199.426 30.79 199.386 30.71 199.306 30.65C199.246 30.57 199.166 30.53 199.066 30.53H189.976C189.876 30.53 189.786 30.57 189.706 30.65C189.646 30.71 189.616 30.79 189.616 30.89V33.74ZM206.312 44V30.74C206.312 29.98 206.502 29.29 206.882 28.67C207.262 28.05 207.762 27.55 208.382 27.17C209.022 26.79 209.712 26.6 210.452 26.6H220.112V30.53H210.602C210.502 30.53 210.412 30.57 210.332 30.65C210.272 30.71 210.242 30.79 210.242 30.89V44H206.312ZM222.046 30.47V26.54H225.976V30.47H222.046ZM222.046 44V40.07H225.976V44H222.046ZM237.975 44V22.4H241.905V44H237.975ZM254.239 44L244.669 26.6H249.199L256.069 39.23L262.909 26.6H267.439L257.839 44H254.239ZM272.766 44C272.006 44 271.306 43.81 270.666 43.43C270.046 43.05 269.546 42.55 269.166 41.93C268.806 41.31 268.626 40.62 268.626 39.86V33.32H282.366V30.89C282.366 30.79 282.326 30.71 282.246 30.65C282.186 30.57 282.106 30.53 282.006 30.53H268.626V26.6H282.156C282.916 26.6 283.606 26.79 284.226 27.17C284.866 27.55 285.366 28.05 285.726 28.67C286.106 29.29 286.296 29.98 286.296 30.74V44H272.766ZM272.916 40.07H282.366V36.86H272.556V39.71C272.556 39.81 272.586 39.9 272.646 39.98C272.726 40.04 272.816 40.07 272.916 40.07ZM289.194 44V26.6H302.724C303.484 26.6 304.174 26.79 304.794 27.17C305.434 27.55 305.934 28.05 306.294 28.67C306.674 29.29 306.864 29.98 306.864 30.74V44H302.934V30.89C302.934 30.79 302.894 30.71 302.814 30.65C302.754 30.57 302.674 30.53 302.574 30.53H293.484C293.384 30.53 293.294 30.57 293.214 30.65C293.154 30.71 293.124 30.79 293.124 30.89V44H289.194Z" fill="white"/>
<defs>
<filter id="filter0_d_362_9" x="0" y="0.5" width="330" height="71.5" filterUnits="userSpaceOnUse" color-interpolation-filters="sRGB">
<feFlood flood-opacity="0" result="BackgroundImageFix"/>
<feColorMatrix in="SourceAlpha" type="matrix" values="0 0 0 0 0 0 0 0 0 0 0 0 0 0 0 0 0 0 127 0" result="hardAlpha"/>
<feOffset dx="4" dy="4"/>
<feGaussianBlur stdDeviation="2"/>
<feComposite in2="hardAlpha" operator="out"/>
<feColorMatrix type="matrix" values="0 0 0 0 0 0 0 0 0 0 0 0 0 0 0 0 0 0 0.25 0"/>
<feBlend mode="normal" in2="BackgroundImageFix" result="effect1_dropShadow_362_9"/>
<feBlend mode="normal" in="SourceGraphic" in2="effect1_dropShadow_362_9" result="shape"/>
</filter>
</defs>
</svg>
