<svg width="436" height="73" viewBox="0 0 436 73" fill="none" xmlns="http://www.w3.org/2000/svg">
<g filter="url(#filter0_d_362_11)">
<path d="M0 0L396.5 12.5L427.5 65L15 57.5L0 0Z" fill="#23CF51"/>
</g>
<path d="M26.79 44C26.03 44 25.33 43.81 24.69 43.43C24.07 43.05 23.57 42.55 23.19 41.93C22.81 41.29 22.62 40.59 22.62 39.83V22.4H26.58V39.65C26.58 39.75 26.61 39.84 26.67 39.92C26.75 39.98 26.84 40.01 26.94 40.01H39.84C39.94 40.01 40.03 39.98 40.11 39.92C40.19 39.84 40.23 39.75 40.23 39.65V22.4H44.22V39.83C44.22 40.59 44.03 41.29 43.65 41.93C43.27 42.55 42.76 43.05 42.12 43.43C41.5 43.81 40.81 44 40.05 44H26.79ZM47.4638 44V26.6H60.9937C61.7538 26.6 62.4438 26.79 63.0638 27.17C63.7038 27.55 64.2038 28.05 64.5638 28.67C64.9438 29.29 65.1338 29.98 65.1338 30.74V44H61.2038V30.89C61.2038 30.79 61.1638 30.71 61.0838 30.65C61.0238 30.57 60.9437 30.53 60.8438 30.53H51.7538C51.6538 30.53 51.5638 30.57 51.4838 30.65C51.4238 30.71 51.3938 30.79 51.3938 30.89V44H47.4638ZM71.9023 44C71.1423 44 70.4523 43.81 69.8323 43.43C69.2123 43.05 68.7123 42.55 68.3323 41.93C67.9523 41.31 67.7623 40.62 67.7623 39.86V39.2H71.6923V39.71C71.6923 39.81 71.7223 39.9 71.7823 39.98C71.8623 40.04 71.9523 40.07 72.0523 40.07H81.1423C81.2423 40.07 81.3223 40.04 81.3823 39.98C81.4623 39.9 81.5023 39.81 81.5023 39.71V37.64C81.5023 37.54 81.4623 37.46 81.3823 37.4C81.3223 37.32 81.2423 37.28 81.1423 37.28H71.9023C71.1423 37.28 70.4523 37.09 69.8323 36.71C69.2123 36.33 68.7123 35.83 68.3323 35.21C67.9523 34.59 67.7623 33.9 67.7623 33.14V30.74C67.7623 29.98 67.9523 29.29 68.3323 28.67C68.7123 28.05 69.2123 27.55 69.8323 27.17C70.4523 26.79 71.1423 26.6 71.9023 26.6H81.2923C82.0723 26.6 82.7723 26.79 83.3923 27.17C84.0123 27.55 84.5123 28.05 84.8923 28.67C85.2723 29.29 85.4623 29.98 85.4623 30.74V31.4H81.5023V30.89C81.5023 30.79 81.4623 30.71 81.3823 30.65C81.3223 30.57 81.2423 30.53 81.1423 30.53H72.0523C71.9523 30.53 71.8623 30.57 71.7823 30.65C71.7223 30.71 71.6923 30.79 71.6923 30.89V32.96C71.6923 33.06 71.7223 33.15 71.7823 33.23C71.8623 33.29 71.9523 33.32 72.0523 33.32H81.2923C82.0723 33.32 82.7723 33.51 83.3923 33.89C84.0123 34.27 84.5123 34.77 84.8923 35.39C85.2723 36.01 85.4623 36.7 85.4623 37.46V39.86C85.4623 40.62 85.2723 41.31 84.8923 41.93C84.5123 42.55 84.0123 43.05 83.3923 43.43C82.7723 43.81 82.0723 44 81.2923 44H71.9023ZM92.002 44C91.242 44 90.552 43.81 89.932 43.43C89.312 43.05 88.812 42.55 88.432 41.93C88.052 41.31 87.862 40.62 87.862 39.86V30.74C87.862 29.98 88.052 29.29 88.432 28.67C88.812 28.05 89.312 27.55 89.932 27.17C90.552 26.79 91.242 26.6 92.002 26.6H101.392C102.152 26.6 102.842 26.79 103.462 27.17C104.102 27.55 104.602 28.05 104.962 28.67C105.342 29.29 105.532 29.98 105.532 30.74V37.28H91.792V39.71C91.792 39.81 91.822 39.9 91.882 39.98C91.962 40.04 92.052 40.07 92.152 40.07H105.532V44H92.002ZM91.792 33.74H101.602V30.89C101.602 30.79 101.562 30.71 101.482 30.65C101.422 30.57 101.342 30.53 101.242 30.53H92.152C92.052 30.53 91.962 30.57 91.882 30.65C91.822 30.71 91.792 30.79 91.792 30.89V33.74ZM108.488 44V30.74C108.488 29.98 108.678 29.29 109.058 28.67C109.438 28.05 109.938 27.55 110.558 27.17C111.198 26.79 111.888 26.6 112.628 26.6H122.288V30.53H112.778C112.678 30.53 112.588 30.57 112.508 30.65C112.448 30.71 112.418 30.79 112.418 30.89V44H108.488ZM133.511 44V22.4H150.911C151.671 22.4 152.371 22.59 153.011 22.97C153.651 23.35 154.161 23.86 154.541 24.5C154.921 25.12 155.111 25.81 155.111 26.57V39.83C155.111 40.59 154.921 41.29 154.541 41.93C154.161 42.55 153.651 43.05 153.011 43.43C152.371 43.81 151.671 44 150.911 44H133.511ZM137.801 40.01H150.731C150.831 40.01 150.921 39.98 151.001 39.92C151.081 39.84 151.121 39.75 151.121 39.65V26.75C151.121 26.65 151.081 26.57 151.001 26.51C150.921 26.43 150.831 26.39 150.731 26.39H137.801C137.701 26.39 137.611 26.43 137.531 26.51C137.471 26.57 137.441 26.65 137.441 26.75V39.65C137.441 39.75 137.471 39.84 137.531 39.92C137.611 39.98 137.701 40.01 137.801 40.01ZM162.461 44C161.701 44 161.011 43.81 160.391 43.43C159.771 43.05 159.271 42.55 158.891 41.93C158.511 41.31 158.321 40.62 158.321 39.86V30.74C158.321 29.98 158.511 29.29 158.891 28.67C159.271 28.05 159.771 27.55 160.391 27.17C161.011 26.79 161.701 26.6 162.461 26.6H171.851C172.611 26.6 173.301 26.79 173.921 27.17C174.561 27.55 175.061 28.05 175.421 28.67C175.801 29.29 175.991 29.98 175.991 30.74V37.28H162.251V39.71C162.251 39.81 162.281 39.9 162.341 39.98C162.421 40.04 162.511 40.07 162.611 40.07H175.991V44H162.461ZM162.251 33.74H172.061V30.89C172.061 30.79 172.021 30.71 171.941 30.65C171.881 30.57 171.801 30.53 171.701 30.53H162.611C162.511 30.53 162.421 30.57 162.341 30.65C162.281 30.71 162.251 30.79 162.251 30.89V33.74ZM182.937 44C182.177 44 181.487 43.81 180.867 43.43C180.247 43.05 179.747 42.55 179.367 41.93C178.987 41.31 178.797 40.62 178.797 39.86V39.2H182.727V39.71C182.727 39.81 182.757 39.9 182.817 39.98C182.897 40.04 182.987 40.07 183.087 40.07H192.177C192.277 40.07 192.357 40.04 192.417 39.98C192.497 39.9 192.537 39.81 192.537 39.71V37.64C192.537 37.54 192.497 37.46 192.417 37.4C192.357 37.32 192.277 37.28 192.177 37.28H182.937C182.177 37.28 181.487 37.09 180.867 36.71C180.247 36.33 179.747 35.83 179.367 35.21C178.987 34.59 178.797 33.9 178.797 33.14V30.74C178.797 29.98 178.987 29.29 179.367 28.67C179.747 28.05 180.247 27.55 180.867 27.17C181.487 26.79 182.177 26.6 182.937 26.6H192.327C193.107 26.6 193.807 26.79 194.427 27.17C195.047 27.55 195.547 28.05 195.927 28.67C196.307 29.29 196.497 29.98 196.497 30.74V31.4H192.537V30.89C192.537 30.79 192.497 30.71 192.417 30.65C192.357 30.57 192.277 30.53 192.177 30.53H183.087C182.987 30.53 182.897 30.57 182.817 30.65C182.757 30.71 182.727 30.79 182.727 30.89V32.96C182.727 33.06 182.757 33.15 182.817 33.23C182.897 33.29 182.987 33.32 183.087 33.32H192.327C193.107 33.32 193.807 33.51 194.427 33.89C195.047 34.27 195.547 34.77 195.927 35.39C196.307 36.01 196.497 36.7 196.497 37.46V39.86C196.497 40.62 196.307 41.31 195.927 41.93C195.547 42.55 195.047 43.05 194.427 43.43C193.807 43.81 193.107 44 192.327 44H182.937ZM199.484 44V26.6H203.414V44H199.484ZM199.484 24.86V20.9H203.414V24.86H199.484ZM208.714 50.87V46.91H219.184C219.284 46.91 219.364 46.87 219.424 46.79C219.504 46.73 219.544 46.65 219.544 46.55V44H209.944C209.204 44 208.514 43.81 207.874 43.43C207.254 43.05 206.754 42.55 206.374 41.93C205.994 41.31 205.804 40.62 205.804 39.86V30.74C205.804 29.98 205.994 29.29 206.374 28.67C206.754 28.05 207.254 27.55 207.874 27.17C208.514 26.79 209.204 26.6 209.944 26.6H219.364C220.124 26.6 220.814 26.79 221.434 27.17C222.054 27.55 222.544 28.05 222.904 28.67C223.284 29.29 223.474 29.98 223.474 30.74V46.73C223.474 47.51 223.294 48.21 222.934 48.83C222.574 49.45 222.074 49.94 221.434 50.3C220.814 50.68 220.124 50.87 219.364 50.87H208.714ZM210.094 40.07H219.184C219.284 40.07 219.364 40.04 219.424 39.98C219.504 39.9 219.544 39.81 219.544 39.71V30.89C219.544 30.79 219.504 30.71 219.424 30.65C219.364 30.57 219.284 30.53 219.184 30.53H210.094C209.994 30.53 209.904 30.57 209.824 30.65C209.764 30.71 209.734 30.79 209.734 30.89V39.71C209.734 39.81 209.764 39.9 209.824 39.98C209.904 40.04 209.994 40.07 210.094 40.07ZM226.673 44V26.6H240.203C240.963 26.6 241.653 26.79 242.273 27.17C242.913 27.55 243.413 28.05 243.773 28.67C244.153 29.29 244.343 29.98 244.343 30.74V44H240.413V30.89C240.413 30.79 240.373 30.71 240.293 30.65C240.233 30.57 240.153 30.53 240.053 30.53H230.963C230.863 30.53 230.773 30.57 230.693 30.65C230.633 30.71 230.603 30.79 230.603 30.89V44H226.673ZM250.996 44C250.236 44 249.546 43.81 248.926 43.43C248.306 43.05 247.806 42.55 247.426 41.93C247.046 41.31 246.856 40.62 246.856 39.86V30.74C246.856 29.98 247.046 29.29 247.426 28.67C247.806 28.05 248.306 27.55 248.926 27.17C249.546 26.79 250.236 26.6 250.996 26.6H260.386C261.146 26.6 261.836 26.79 262.456 27.17C263.096 27.55 263.596 28.05 263.956 28.67C264.336 29.29 264.526 29.98 264.526 30.74V37.28H250.786V39.71C250.786 39.81 250.816 39.9 250.876 39.98C250.956 40.04 251.046 40.07 251.146 40.07H264.526V44H250.996ZM250.786 33.74H260.596V30.89C260.596 30.79 260.556 30.71 260.476 30.65C260.416 30.57 260.336 30.53 260.236 30.53H251.146C251.046 30.53 250.956 30.57 250.876 30.65C250.816 30.71 250.786 30.79 250.786 30.89V33.74ZM267.482 44V30.74C267.482 29.98 267.672 29.29 268.052 28.67C268.432 28.05 268.932 27.55 269.552 27.17C270.192 26.79 270.882 26.6 271.622 26.6H281.282V30.53H271.772C271.672 30.53 271.582 30.57 271.502 30.65C271.442 30.71 271.412 30.79 271.412 30.89V44H267.482ZM283.216 30.47V26.54H287.146V30.47H283.216ZM283.216 44V40.07H287.146V44H283.216ZM302.175 44C301.415 44 300.715 43.81 300.075 43.43C299.455 43.05 298.955 42.55 298.575 41.93C298.195 41.29 298.005 40.59 298.005 39.83V37.37H301.965V39.65C301.965 39.75 301.995 39.84 302.055 39.92C302.135 39.98 302.225 40.01 302.325 40.01H315.225C315.325 40.01 315.415 39.98 315.495 39.92C315.575 39.84 315.615 39.75 315.615 39.65V22.4H319.605V39.83C319.605 40.59 319.415 41.29 319.035 41.93C318.655 42.55 318.145 43.05 317.505 43.43C316.885 43.81 316.195 44 315.435 44H302.175ZM326.963 44C326.203 44 325.513 43.81 324.893 43.43C324.273 43.05 323.773 42.55 323.393 41.93C323.013 41.31 322.823 40.62 322.823 39.86V30.74C322.823 29.98 323.013 29.29 323.393 28.67C323.773 28.05 324.273 27.55 324.893 27.17C325.513 26.79 326.203 26.6 326.963 26.6H336.353C337.113 26.6 337.803 26.79 338.423 27.17C339.063 27.55 339.563 28.05 339.923 28.67C340.303 29.29 340.493 29.98 340.493 30.74V39.86C340.493 40.62 340.303 41.31 339.923 41.93C339.563 42.55 339.073 43.05 338.453 43.43C337.833 43.81 337.133 44 336.353 44H326.963ZM327.113 40.07H336.203C336.303 40.07 336.383 40.04 336.443 39.98C336.523 39.9 336.563 39.81 336.563 39.71V30.89C336.563 30.79 336.523 30.71 336.443 30.65C336.383 30.57 336.303 30.53 336.203 30.53H327.113C327.013 30.53 326.923 30.57 326.843 30.65C326.783 30.71 326.753 30.79 326.753 30.89V39.71C326.753 39.81 326.783 39.9 326.843 39.98C326.923 40.04 327.013 40.07 327.113 40.07ZM342.952 44V26.6H356.482C357.242 26.6 357.932 26.79 358.552 27.17C359.192 27.55 359.692 28.05 360.052 28.67C360.432 29.29 360.622 29.98 360.622 30.74V44H356.692V30.89C356.692 30.79 356.652 30.71 356.572 30.65C356.512 30.57 356.432 30.53 356.332 30.53H347.242C347.142 30.53 347.052 30.57 346.972 30.65C346.912 30.71 346.882 30.79 346.882 30.89V44H342.952ZM367.921 44C367.161 44 366.461 43.81 365.821 43.43C365.201 43.05 364.701 42.55 364.321 41.93C363.961 41.31 363.781 40.62 363.781 39.86V33.32H377.521V30.89C377.521 30.79 377.481 30.71 377.401 30.65C377.341 30.57 377.261 30.53 377.161 30.53H363.781V26.6H377.311C378.071 26.6 378.761 26.79 379.381 27.17C380.021 27.55 380.521 28.05 380.881 28.67C381.261 29.29 381.451 29.98 381.451 30.74V44H367.921ZM368.071 40.07H377.521V36.86H367.711V39.71C367.711 39.81 367.741 39.9 367.801 39.98C367.881 40.04 367.971 40.07 368.071 40.07ZM387.986 44C387.226 44 386.536 43.81 385.916 43.43C385.296 43.05 384.796 42.55 384.416 41.93C384.036 41.31 383.846 40.62 383.846 39.86V39.2H387.776V39.71C387.776 39.81 387.806 39.9 387.866 39.98C387.946 40.04 388.036 40.07 388.136 40.07H397.226C397.326 40.07 397.406 40.04 397.466 39.98C397.546 39.9 397.586 39.81 397.586 39.71V37.64C397.586 37.54 397.546 37.46 397.466 37.4C397.406 37.32 397.326 37.28 397.226 37.28H387.986C387.226 37.28 386.536 37.09 385.916 36.71C385.296 36.33 384.796 35.83 384.416 35.21C384.036 34.59 383.846 33.9 383.846 33.14V30.74C383.846 29.98 384.036 29.29 384.416 28.67C384.796 28.05 385.296 27.55 385.916 27.17C386.536 26.79 387.226 26.6 387.986 26.6H397.376C398.156 26.6 398.856 26.79 399.476 27.17C400.096 27.55 400.596 28.05 400.976 28.67C401.356 29.29 401.546 29.98 401.546 30.74V31.4H397.586V30.89C397.586 30.79 397.546 30.71 397.466 30.65C397.406 30.57 397.326 30.53 397.226 30.53H388.136C388.036 30.53 387.946 30.57 387.866 30.65C387.806 30.71 387.776 30.79 387.776 30.89V32.96C387.776 33.06 387.806 33.15 387.866 33.23C387.946 33.29 388.036 33.32 388.136 33.32H397.376C398.156 33.32 398.856 33.51 399.476 33.89C400.096 34.27 400.596 34.77 400.976 35.39C401.356 36.01 401.546 36.7 401.546 37.46V39.86C401.546 40.62 401.356 41.31 400.976 41.93C400.596 42.55 400.096 43.05 399.476 43.43C398.856 43.81 398.156 44 397.376 44H387.986Z" fill="white"/>
<defs>
<filter id="filter0_d_362_11" x="0" y="0" width="435.5" height="73" filterUnits="userSpaceOnUse" color-interpolation-filters="sRGB">
<feFlood flood-opacity="0" result="BackgroundImageFix"/>
<feColorMatrix in="SourceAlpha" type="matrix" values="0 0 0 0 0 0 0 0 0 0 0 0 0 0 0 0 0 0 127 0" result="hardAlpha"/>
<feOffset dx="4" dy="4"/>
<feGaussianBlur stdDeviation="2"/>
<feComposite in2="hardAlpha" operator="out"/>
<feColorMatrix type="matrix" values="0 0 0 0 0 0 0 0 0 0 0 0 0 0 0 0 0 0 0.25 0"/>
<feBlend mode="normal" in2="BackgroundImageFix" result="effect1_dropShadow_362_11"/>
<feBlend mode="normal" in="SourceGraphic" in2="effect1_dropShadow_362_11" result="shape"/>
</filter>
</defs>
</svg>
