<svg width="351" height="70" viewBox="0 0 351 70" fill="none" xmlns="http://www.w3.org/2000/svg">
<g filter="url(#filter0_d_362_7)">
<path d="M27.0242 5.8255L343 0L326.37 52.0134L0 62L27.0242 5.8255Z" fill="#23CF51"/>
</g>
<path d="M23.74 41V19.4H41.14C41.9 19.4 42.6 19.59 43.24 19.97C43.88 20.35 44.39 20.86 44.77 21.5C45.15 22.12 45.34 22.81 45.34 23.57V36.83C45.34 37.59 45.15 38.29 44.77 38.93C44.39 39.55 43.88 40.05 43.24 40.43C42.6 40.81 41.9 41 41.14 41H23.74ZM28.03 37.01H40.96C41.06 37.01 41.15 36.98 41.23 36.92C41.31 36.84 41.35 36.75 41.35 36.65V23.75C41.35 23.65 41.31 23.57 41.23 23.51C41.15 23.43 41.06 23.39 40.96 23.39H28.03C27.93 23.39 27.84 23.43 27.76 23.51C27.7 23.57 27.67 23.65 27.67 23.75V36.65C27.67 36.75 27.7 36.84 27.76 36.92C27.84 36.98 27.93 37.01 28.03 37.01ZM48.3745 41V23.6H52.3045V41H48.3745ZM48.3745 21.86V17.9H52.3045V21.86H48.3745ZM59.3399 41C58.5799 41 57.8899 40.81 57.2699 40.43C56.6499 40.05 56.1499 39.55 55.7699 38.93C55.3899 38.31 55.1999 37.62 55.1999 36.86V27.74C55.1999 26.98 55.3899 26.29 55.7699 25.67C56.1499 25.05 56.6499 24.55 57.2699 24.17C57.8899 23.79 58.5799 23.6 59.3399 23.6H68.7299C69.4899 23.6 70.1799 23.79 70.7999 24.17C71.4399 24.55 71.9399 25.05 72.2999 25.67C72.6799 26.29 72.8699 26.98 72.8699 27.74V34.28H59.1299V36.71C59.1299 36.81 59.1599 36.9 59.2199 36.98C59.2999 37.04 59.3899 37.07 59.4899 37.07H72.8699V41H59.3399ZM59.1299 30.74H68.9399V27.89C68.9399 27.79 68.8999 27.71 68.8199 27.65C68.7599 27.57 68.6799 27.53 68.5799 27.53H59.4899C59.3899 27.53 59.2999 27.57 59.2199 27.65C59.1599 27.71 59.1299 27.79 59.1299 27.89V30.74ZM85.3813 41V19.4H101.941C102.701 19.4 103.391 19.59 104.011 19.97C104.651 20.35 105.161 20.86 105.541 21.5C105.921 22.12 106.111 22.81 106.111 23.57V27.8C106.111 28.06 106.091 28.31 106.051 28.55C106.011 28.79 105.941 29.02 105.841 29.24C106.181 29.7 106.451 30.18 106.651 30.68C106.871 31.18 106.981 31.68 106.981 32.18V36.83C106.981 37.59 106.791 38.29 106.411 38.93C106.031 39.55 105.521 40.05 104.881 40.43C104.241 40.81 103.541 41 102.781 41H85.3813ZM89.7013 37.01H102.601C102.701 37.01 102.791 36.98 102.871 36.92C102.951 36.84 102.991 36.75 102.991 36.65V32.36C102.991 32.26 102.951 32.18 102.871 32.12C102.791 32.04 102.701 32 102.601 32H89.7013C89.6013 32 89.5113 32.04 89.4313 32.12C89.3713 32.18 89.3413 32.26 89.3413 32.36V36.65C89.3413 36.75 89.3713 36.84 89.4313 36.92C89.5113 36.98 89.6013 37.01 89.7013 37.01ZM89.7013 28.01H101.761C101.861 28.01 101.941 27.98 102.001 27.92C102.061 27.84 102.091 27.75 102.091 27.65V23.75C102.091 23.65 102.061 23.57 102.001 23.51C101.941 23.43 101.861 23.39 101.761 23.39H89.7013C89.6013 23.39 89.5113 23.43 89.4313 23.51C89.3713 23.57 89.3413 23.65 89.3413 23.75V27.65C89.3413 27.75 89.3713 27.84 89.4313 27.92C89.5113 27.98 89.6013 28.01 89.7013 28.01ZM114.272 41C113.512 41 112.812 40.81 112.172 40.43C111.552 40.05 111.052 39.55 110.672 38.93C110.312 38.31 110.132 37.62 110.132 36.86V30.32H123.872V27.89C123.872 27.79 123.832 27.71 123.752 27.65C123.692 27.57 123.612 27.53 123.512 27.53H110.132V23.6H123.662C124.422 23.6 125.112 23.79 125.732 24.17C126.372 24.55 126.872 25.05 127.232 25.67C127.612 26.29 127.802 26.98 127.802 27.74V41H114.272ZM114.422 37.07H123.872V33.86H114.062V36.71C114.062 36.81 114.092 36.9 114.152 36.98C114.232 37.04 114.322 37.07 114.422 37.07ZM134.338 41C133.578 41 132.888 40.81 132.268 40.43C131.648 40.05 131.148 39.55 130.768 38.93C130.388 38.31 130.198 37.62 130.198 36.86V36.2H134.128V36.71C134.128 36.81 134.158 36.9 134.218 36.98C134.298 37.04 134.388 37.07 134.488 37.07H143.578C143.678 37.07 143.758 37.04 143.818 36.98C143.898 36.9 143.938 36.81 143.938 36.71V34.64C143.938 34.54 143.898 34.46 143.818 34.4C143.758 34.32 143.678 34.28 143.578 34.28H134.338C133.578 34.28 132.888 34.09 132.268 33.71C131.648 33.33 131.148 32.83 130.768 32.21C130.388 31.59 130.198 30.9 130.198 30.14V27.74C130.198 26.98 130.388 26.29 130.768 25.67C131.148 25.05 131.648 24.55 132.268 24.17C132.888 23.79 133.578 23.6 134.338 23.6H143.728C144.508 23.6 145.208 23.79 145.828 24.17C146.448 24.55 146.948 25.05 147.328 25.67C147.708 26.29 147.898 26.98 147.898 27.74V28.4H143.938V27.89C143.938 27.79 143.898 27.71 143.818 27.65C143.758 27.57 143.678 27.53 143.578 27.53H134.488C134.388 27.53 134.298 27.57 134.218 27.65C134.158 27.71 134.128 27.79 134.128 27.89V29.96C134.128 30.06 134.158 30.15 134.218 30.23C134.298 30.29 134.388 30.32 134.488 30.32H143.728C144.508 30.32 145.208 30.51 145.828 30.89C146.448 31.27 146.948 31.77 147.328 32.39C147.708 33.01 147.898 33.7 147.898 34.46V36.86C147.898 37.62 147.708 38.31 147.328 38.93C146.948 39.55 146.448 40.05 145.828 40.43C145.208 40.81 144.508 41 143.728 41H134.338ZM155.054 41C154.294 41 153.604 40.81 152.984 40.43C152.364 40.05 151.864 39.55 151.484 38.93C151.104 38.31 150.914 37.62 150.914 36.86V18.26H154.844V23.6H161.624V27.53H154.844V36.71C154.844 36.81 154.874 36.9 154.934 36.98C155.014 37.04 155.104 37.07 155.204 37.07H161.624V41H155.054ZM168.179 41C167.419 41 166.729 40.81 166.109 40.43C165.489 40.05 164.989 39.55 164.609 38.93C164.229 38.31 164.039 37.62 164.039 36.86V17.87H167.999V36.71C167.999 36.81 168.029 36.9 168.089 36.98C168.169 37.04 168.259 37.07 168.359 37.07H171.689V41H168.179ZM178.022 41C177.262 41 176.572 40.81 175.952 40.43C175.332 40.05 174.832 39.55 174.452 38.93C174.072 38.31 173.882 37.62 173.882 36.86V27.74C173.882 26.98 174.072 26.29 174.452 25.67C174.832 25.05 175.332 24.55 175.952 24.17C176.572 23.79 177.262 23.6 178.022 23.6H187.412C188.172 23.6 188.862 23.79 189.482 24.17C190.122 24.55 190.622 25.05 190.982 25.67C191.362 26.29 191.552 26.98 191.552 27.74V34.28H177.812V36.71C177.812 36.81 177.842 36.9 177.902 36.98C177.982 37.04 178.072 37.07 178.172 37.07H191.552V41H178.022ZM177.812 30.74H187.622V27.89C187.622 27.79 187.582 27.71 187.502 27.65C187.442 27.57 187.362 27.53 187.262 27.53H178.172C178.072 27.53 177.982 27.57 177.902 27.65C177.842 27.71 177.812 27.79 177.812 27.89V30.74ZM194.507 41V27.74C194.507 26.98 194.697 26.29 195.077 25.67C195.457 25.05 195.957 24.55 196.577 24.17C197.217 23.79 197.907 23.6 198.647 23.6H208.307V27.53H198.797C198.697 27.53 198.607 27.57 198.527 27.65C198.467 27.71 198.437 27.79 198.437 27.89V41H194.507ZM210.591 41V23.6H214.521V41H210.591ZM210.591 21.86V17.9H214.521V21.86H210.591ZM218.005 41V23.6H231.535C232.295 23.6 232.985 23.79 233.605 24.17C234.245 24.55 234.745 25.05 235.105 25.67C235.485 26.29 235.675 26.98 235.675 27.74V41H231.745V27.89C231.745 27.79 231.705 27.71 231.625 27.65C231.565 27.57 231.485 27.53 231.385 27.53H222.295C222.195 27.53 222.105 27.57 222.025 27.65C221.965 27.71 221.935 27.79 221.935 27.89V41H218.005ZM238.893 27.47V23.54H242.823V27.47H238.893ZM238.893 41V37.07H242.823V41H238.893ZM255.273 41V19.37H259.233V37.01H276.873V41H255.273ZM282.611 41C281.851 41 281.161 40.81 280.541 40.43C279.921 40.05 279.421 39.55 279.041 38.93C278.661 38.31 278.471 37.62 278.471 36.86V27.74C278.471 26.98 278.661 26.29 279.041 25.67C279.421 25.05 279.921 24.55 280.541 24.17C281.161 23.79 281.851 23.6 282.611 23.6H292.001C292.761 23.6 293.451 23.79 294.071 24.17C294.711 24.55 295.211 25.05 295.571 25.67C295.951 26.29 296.141 26.98 296.141 27.74V34.28H282.401V36.71C282.401 36.81 282.431 36.9 282.491 36.98C282.571 37.04 282.661 37.07 282.761 37.07H296.141V41H282.611ZM282.401 30.74H292.211V27.89C292.211 27.79 292.171 27.71 292.091 27.65C292.031 27.57 291.951 27.53 291.851 27.53H282.761C282.661 27.53 282.571 27.57 282.491 27.65C282.431 27.71 282.401 27.79 282.401 27.89V30.74ZM299.333 41V23.6H312.863C313.623 23.6 314.313 23.79 314.933 24.17C315.573 24.55 316.073 25.05 316.433 25.67C316.813 26.29 317.003 26.98 317.003 27.74V41H313.073V27.89C313.073 27.79 313.033 27.71 312.953 27.65C312.893 27.57 312.813 27.53 312.713 27.53H303.623C303.523 27.53 303.433 27.57 303.353 27.65C303.293 27.71 303.263 27.79 303.263 27.89V41H299.333ZM320.162 41V23.6H324.092V41H320.162ZM320.162 21.86V17.9H324.092V21.86H320.162Z" fill="white"/>
<defs>
<filter id="filter0_d_362_7" x="0" y="0" width="351" height="70" filterUnits="userSpaceOnUse" color-interpolation-filters="sRGB">
<feFlood flood-opacity="0" result="BackgroundImageFix"/>
<feColorMatrix in="SourceAlpha" type="matrix" values="0 0 0 0 0 0 0 0 0 0 0 0 0 0 0 0 0 0 127 0" result="hardAlpha"/>
<feOffset dx="4" dy="4"/>
<feGaussianBlur stdDeviation="2"/>
<feComposite in2="hardAlpha" operator="out"/>
<feColorMatrix type="matrix" values="0 0 0 0 0 0 0 0 0 0 0 0 0 0 0 0 0 0 0.25 0"/>
<feBlend mode="normal" in2="BackgroundImageFix" result="effect1_dropShadow_362_7"/>
<feBlend mode="normal" in="SourceGraphic" in2="effect1_dropShadow_362_7" result="shape"/>
</filter>
</defs>
</svg>
