<svg width="517" height="69" viewBox="0 0 517 69" fill="none" xmlns="http://www.w3.org/2000/svg">
<g filter="url(#filter0_d_361_5)">
<path d="M28.367 7.81505L509 0L488.683 61L0 50.2396L28.367 7.81505Z" fill="#23CF51"/>
</g>
<path d="M45.79 41C45.03 41 44.33 40.81 43.69 40.43C43.07 40.05 42.57 39.55 42.19 38.93C41.81 38.29 41.62 37.59 41.62 36.83V19.4H45.58V36.65C45.58 36.75 45.61 36.84 45.67 36.92C45.75 36.98 45.84 37.01 45.94 37.01H58.84C58.94 37.01 59.03 36.98 59.11 36.92C59.19 36.84 59.23 36.75 59.23 36.65V19.4H63.22V36.83C63.22 37.59 63.03 38.29 62.65 38.93C62.27 39.55 61.76 40.05 61.12 40.43C60.5 40.81 59.81 41 59.05 41H45.79ZM66.4638 41V23.6H79.9937C80.7538 23.6 81.4438 23.79 82.0638 24.17C82.7038 24.55 83.2038 25.05 83.5638 25.67C83.9438 26.29 84.1338 26.98 84.1338 27.74V41H80.2038V27.89C80.2038 27.79 80.1638 27.71 80.0838 27.65C80.0238 27.57 79.9437 27.53 79.8438 27.53H70.7538C70.6538 27.53 70.5638 27.57 70.4838 27.65C70.4238 27.71 70.3938 27.79 70.3938 27.89V41H66.4638ZM90.9023 41C90.1423 41 89.4523 40.81 88.8323 40.43C88.2123 40.05 87.7123 39.55 87.3323 38.93C86.9523 38.31 86.7623 37.62 86.7623 36.86V36.2H90.6923V36.71C90.6923 36.81 90.7223 36.9 90.7823 36.98C90.8623 37.04 90.9523 37.07 91.0523 37.07H100.142C100.242 37.07 100.322 37.04 100.382 36.98C100.462 36.9 100.502 36.81 100.502 36.71V34.64C100.502 34.54 100.462 34.46 100.382 34.4C100.322 34.32 100.242 34.28 100.142 34.28H90.9023C90.1423 34.28 89.4523 34.09 88.8323 33.71C88.2123 33.33 87.7123 32.83 87.3323 32.21C86.9523 31.59 86.7623 30.9 86.7623 30.14V27.74C86.7623 26.98 86.9523 26.29 87.3323 25.67C87.7123 25.05 88.2123 24.55 88.8323 24.17C89.4523 23.79 90.1423 23.6 90.9023 23.6H100.292C101.072 23.6 101.772 23.79 102.392 24.17C103.012 24.55 103.512 25.05 103.892 25.67C104.272 26.29 104.462 26.98 104.462 27.74V28.4H100.502V27.89C100.502 27.79 100.462 27.71 100.382 27.65C100.322 27.57 100.242 27.53 100.142 27.53H91.0523C90.9523 27.53 90.8623 27.57 90.7823 27.65C90.7223 27.71 90.6923 27.79 90.6923 27.89V29.96C90.6923 30.06 90.7223 30.15 90.7823 30.23C90.8623 30.29 90.9523 30.32 91.0523 30.32H100.292C101.072 30.32 101.772 30.51 102.392 30.89C103.012 31.27 103.512 31.77 103.892 32.39C104.272 33.01 104.462 33.7 104.462 34.46V36.86C104.462 37.62 104.272 38.31 103.892 38.93C103.512 39.55 103.012 40.05 102.392 40.43C101.772 40.81 101.072 41 100.292 41H90.9023ZM111.002 41C110.242 41 109.552 40.81 108.932 40.43C108.312 40.05 107.812 39.55 107.432 38.93C107.052 38.31 106.862 37.62 106.862 36.86V27.74C106.862 26.98 107.052 26.29 107.432 25.67C107.812 25.05 108.312 24.55 108.932 24.17C109.552 23.79 110.242 23.6 111.002 23.6H120.392C121.152 23.6 121.842 23.79 122.462 24.17C123.102 24.55 123.602 25.05 123.962 25.67C124.342 26.29 124.532 26.98 124.532 27.74V34.28H110.792V36.71C110.792 36.81 110.822 36.9 110.882 36.98C110.962 37.04 111.052 37.07 111.152 37.07H124.532V41H111.002ZM110.792 30.74H120.602V27.89C120.602 27.79 120.562 27.71 120.482 27.65C120.422 27.57 120.342 27.53 120.242 27.53H111.152C111.052 27.53 110.962 27.57 110.882 27.65C110.822 27.71 110.792 27.79 110.792 27.89V30.74ZM127.488 41V27.74C127.488 26.98 127.678 26.29 128.058 25.67C128.438 25.05 128.938 24.55 129.558 24.17C130.198 23.79 130.888 23.6 131.628 23.6H141.288V27.53H131.778C131.678 27.53 131.588 27.57 131.508 27.65C131.448 27.71 131.418 27.79 131.418 27.89V41H127.488ZM152.451 41V19.43H169.851C170.611 19.43 171.311 19.62 171.951 20C172.591 20.38 173.101 20.89 173.481 21.53C173.861 22.15 174.051 22.84 174.051 23.6V29.42C174.051 30.18 173.861 30.88 173.481 31.52C173.101 32.16 172.591 32.67 171.951 33.05C171.311 33.41 170.611 33.59 169.851 33.59L156.411 33.62V41H152.451ZM156.771 29.6H169.671C169.771 29.6 169.861 29.57 169.941 29.51C170.021 29.45 170.061 29.37 170.061 29.27V23.75C170.061 23.65 170.021 23.57 169.941 23.51C169.861 23.43 169.771 23.39 169.671 23.39H156.771C156.671 23.39 156.581 23.43 156.501 23.51C156.441 23.57 156.411 23.65 156.411 23.75V29.27C156.411 29.37 156.441 29.45 156.501 29.51C156.581 29.57 156.671 29.6 156.771 29.6ZM176.062 41V27.74C176.062 26.98 176.252 26.29 176.632 25.67C177.012 25.05 177.512 24.55 178.132 24.17C178.772 23.79 179.462 23.6 180.202 23.6H189.862V27.53H180.352C180.252 27.53 180.162 27.57 180.082 27.65C180.022 27.71 179.992 27.79 179.992 27.89V41H176.062ZM195.904 41C195.144 41 194.454 40.81 193.834 40.43C193.214 40.05 192.714 39.55 192.334 38.93C191.954 38.31 191.764 37.62 191.764 36.86V27.74C191.764 26.98 191.954 26.29 192.334 25.67C192.714 25.05 193.214 24.55 193.834 24.17C194.454 23.79 195.144 23.6 195.904 23.6H205.294C206.054 23.6 206.744 23.79 207.364 24.17C208.004 24.55 208.504 25.05 208.864 25.67C209.244 26.29 209.434 26.98 209.434 27.74V36.86C209.434 37.62 209.244 38.31 208.864 38.93C208.504 39.55 208.014 40.05 207.394 40.43C206.774 40.81 206.074 41 205.294 41H195.904ZM196.054 37.07H205.144C205.244 37.07 205.324 37.04 205.384 36.98C205.464 36.9 205.504 36.81 205.504 36.71V27.89C205.504 27.79 205.464 27.71 205.384 27.65C205.324 27.57 205.244 27.53 205.144 27.53H196.054C195.954 27.53 195.864 27.57 195.784 27.65C195.724 27.71 195.694 27.79 195.694 27.89V36.71C195.694 36.81 195.724 36.9 195.784 36.98C195.864 37.04 195.954 37.07 196.054 37.07ZM205.396 47.57V43.61H212.746C212.846 43.61 212.926 43.57 212.986 43.49C213.066 43.43 213.106 43.35 213.106 43.25V23.6H217.036V43.43C217.036 44.19 216.846 44.88 216.466 45.5C216.106 46.14 215.606 46.64 214.966 47C214.346 47.38 213.656 47.57 212.896 47.57H205.396ZM213.106 21.86V17.9H217.036V21.86H213.106ZM223.678 41C222.918 41 222.228 40.81 221.608 40.43C220.988 40.05 220.488 39.55 220.108 38.93C219.728 38.31 219.538 37.62 219.538 36.86V27.74C219.538 26.98 219.728 26.29 220.108 25.67C220.488 25.05 220.988 24.55 221.608 24.17C222.228 23.79 222.918 23.6 223.678 23.6H233.068C233.828 23.6 234.518 23.79 235.138 24.17C235.778 24.55 236.278 25.05 236.638 25.67C237.018 26.29 237.208 26.98 237.208 27.74V34.28H223.468V36.71C223.468 36.81 223.498 36.9 223.558 36.98C223.638 37.04 223.728 37.07 223.828 37.07H237.208V41H223.678ZM223.468 30.74H233.278V27.89C233.278 27.79 233.238 27.71 233.158 27.65C233.098 27.57 233.018 27.53 232.918 27.53H223.828C223.728 27.53 223.638 27.57 223.558 27.65C223.498 27.71 223.468 27.79 223.468 27.89V30.74ZM240.399 41V17.9H244.329V30.32H247.419L253.629 23.6H257.829V24.68L250.899 32.3L257.799 39.92V41H253.629L247.419 34.28H244.329V41H240.399ZM263.904 41C263.144 41 262.454 40.81 261.834 40.43C261.214 40.05 260.714 39.55 260.334 38.93C259.954 38.31 259.764 37.62 259.764 36.86V18.26H263.694V23.6H270.474V27.53H263.694V36.71C263.694 36.81 263.724 36.9 263.784 36.98C263.864 37.04 263.954 37.07 264.054 37.07H270.474V41H263.904ZM277.028 41C276.268 41 275.578 40.81 274.958 40.43C274.338 40.05 273.838 39.55 273.458 38.93C273.078 38.31 272.888 37.62 272.888 36.86V17.87H276.848V36.71C276.848 36.81 276.878 36.9 276.938 36.98C277.018 37.04 277.108 37.07 277.208 37.07H280.538V41H277.028ZM286.871 41C286.111 41 285.421 40.81 284.801 40.43C284.181 40.05 283.681 39.55 283.301 38.93C282.921 38.31 282.731 37.62 282.731 36.86V27.74C282.731 26.98 282.921 26.29 283.301 25.67C283.681 25.05 284.181 24.55 284.801 24.17C285.421 23.79 286.111 23.6 286.871 23.6H296.261C297.021 23.6 297.711 23.79 298.331 24.17C298.971 24.55 299.471 25.05 299.831 25.67C300.211 26.29 300.401 26.98 300.401 27.74V34.28H286.661V36.71C286.661 36.81 286.691 36.9 286.751 36.98C286.831 37.04 286.921 37.07 287.021 37.07H300.401V41H286.871ZM286.661 30.74H296.471V27.89C296.471 27.79 296.431 27.71 296.351 27.65C296.291 27.57 296.211 27.53 296.111 27.53H287.021C286.921 27.53 286.831 27.57 286.751 27.65C286.691 27.71 286.661 27.79 286.661 27.89V30.74ZM303.533 41V23.6H307.463V41H303.533ZM303.533 21.86V17.9H307.463V21.86H303.533ZM314.763 41C314.003 41 313.313 40.81 312.693 40.43C312.073 40.05 311.573 39.55 311.193 38.93C310.813 38.31 310.623 37.62 310.623 36.86V18.26H314.553V23.6H321.333V27.53H314.553V36.71C314.553 36.81 314.583 36.9 314.643 36.98C314.723 37.04 314.813 37.07 314.913 37.07H321.333V41H314.763ZM327.858 41C327.098 41 326.408 40.81 325.788 40.43C325.168 40.05 324.668 39.55 324.288 38.93C323.908 38.31 323.718 37.62 323.718 36.86V27.74C323.718 26.98 323.908 26.29 324.288 25.67C324.668 25.05 325.168 24.55 325.788 24.17C326.408 23.79 327.098 23.6 327.858 23.6H337.248C338.008 23.6 338.698 23.79 339.318 24.17C339.958 24.55 340.458 25.05 340.818 25.67C341.198 26.29 341.388 26.98 341.388 27.74V34.28H327.648V36.71C327.648 36.81 327.678 36.9 327.738 36.98C327.818 37.04 327.908 37.07 328.008 37.07H341.388V41H327.858ZM327.648 30.74H337.458V27.89C337.458 27.79 337.418 27.71 337.337 27.65C337.278 27.57 337.198 27.53 337.098 27.53H328.008C327.908 27.53 327.818 27.57 327.738 27.65C327.678 27.71 327.648 27.79 327.648 27.89V30.74ZM344.343 41V27.74C344.343 26.98 344.533 26.29 344.913 25.67C345.293 25.05 345.793 24.55 346.413 24.17C347.053 23.79 347.743 23.6 348.483 23.6H358.143V27.53H348.633C348.533 27.53 348.443 27.57 348.363 27.65C348.303 27.71 348.273 27.79 348.273 27.89V41H344.343ZM360.077 27.47V23.54H364.007V27.47H360.077ZM360.077 41V37.07H364.007V41H360.077ZM376.426 41V19.4H380.776L388.606 28.73L396.406 19.4H400.786V41H396.796V25.16L388.606 34.91L380.386 25.19V41H376.426ZM408.248 41C407.488 41 406.798 40.81 406.178 40.43C405.558 40.05 405.058 39.55 404.678 38.93C404.298 38.31 404.108 37.62 404.108 36.86V27.74C404.108 26.98 404.298 26.29 404.678 25.67C405.058 25.05 405.558 24.55 406.178 24.17C406.798 23.79 407.488 23.6 408.248 23.6H417.638C418.398 23.6 419.088 23.79 419.708 24.17C420.348 24.55 420.848 25.05 421.208 25.67C421.588 26.29 421.778 26.98 421.778 27.74V36.86C421.778 37.62 421.588 38.31 421.208 38.93C420.848 39.55 420.358 40.05 419.738 40.43C419.118 40.81 418.418 41 417.638 41H408.248ZM408.398 37.07H417.488C417.588 37.07 417.668 37.04 417.728 36.98C417.808 36.9 417.848 36.81 417.848 36.71V27.89C417.848 27.79 417.808 27.71 417.728 27.65C417.668 27.57 417.588 27.53 417.488 27.53H408.398C408.298 27.53 408.208 27.57 408.128 27.65C408.068 27.71 408.038 27.79 408.038 27.89V36.71C408.038 36.81 408.068 36.9 408.128 36.98C408.208 37.04 408.298 37.07 408.398 37.07ZM424.265 41V27.74C424.265 26.98 424.455 26.29 424.835 25.67C425.215 25.05 425.715 24.55 426.335 24.17C426.975 23.79 427.665 23.6 428.405 23.6H438.065V27.53H428.555C428.455 27.53 428.365 27.57 428.285 27.65C428.225 27.71 428.195 27.79 428.195 27.89V41H424.265ZM440.349 41V23.6H444.279V41H440.349ZM440.349 21.86V17.9H444.279V21.86H440.349ZM451.58 41C450.82 41 450.13 40.81 449.51 40.43C448.89 40.05 448.39 39.55 448.01 38.93C447.63 38.31 447.44 37.62 447.44 36.86V18.26H451.37V23.6H458.15V27.53H451.37V36.71C451.37 36.81 451.4 36.9 451.46 36.98C451.54 37.04 451.63 37.07 451.73 37.07H458.15V41H451.58ZM461.093 41V36.71L472.973 27.53H461.093V23.6H478.763V27.89L466.883 37.07H478.763V41H461.093Z" fill="white"/>
<defs>
<filter id="filter0_d_361_5" x="0" y="0" width="517" height="69" filterUnits="userSpaceOnUse" color-interpolation-filters="sRGB">
<feFlood flood-opacity="0" result="BackgroundImageFix"/>
<feColorMatrix in="SourceAlpha" type="matrix" values="0 0 0 0 0 0 0 0 0 0 0 0 0 0 0 0 0 0 127 0" result="hardAlpha"/>
<feOffset dx="4" dy="4"/>
<feGaussianBlur stdDeviation="2"/>
<feComposite in2="hardAlpha" operator="out"/>
<feColorMatrix type="matrix" values="0 0 0 0 0 0 0 0 0 0 0 0 0 0 0 0 0 0 0.25 0"/>
<feBlend mode="normal" in2="BackgroundImageFix" result="effect1_dropShadow_361_5"/>
<feBlend mode="normal" in="SourceGraphic" in2="effect1_dropShadow_361_5" result="shape"/>
</filter>
</defs>
</svg>
