<svg width="477" height="79" viewBox="0 0 477 79" fill="none" xmlns="http://www.w3.org/2000/svg">
<g filter="url(#filter0_d_361_3)">
<path d="M0 0L418.967 7.22607L468.269 71L29 55L0 0Z" fill="#23CF51"/>
</g>
<path d="M50.74 43V21.4H68.14C68.9 21.4 69.6 21.59 70.24 21.97C70.88 22.35 71.39 22.86 71.77 23.5C72.15 24.12 72.34 24.81 72.34 25.57V38.83C72.34 39.59 72.15 40.29 71.77 40.93C71.39 41.55 70.88 42.05 70.24 42.43C69.6 42.81 68.9 43 68.14 43H50.74ZM55.03 39.01H67.96C68.06 39.01 68.15 38.98 68.23 38.92C68.31 38.84 68.35 38.75 68.35 38.65V25.75C68.35 25.65 68.31 25.57 68.23 25.51C68.15 25.43 68.06 25.39 67.96 25.39H55.03C54.93 25.39 54.84 25.43 54.76 25.51C54.7 25.57 54.67 25.65 54.67 25.75V38.65C54.67 38.75 54.7 38.84 54.76 38.92C54.84 38.98 54.93 39.01 55.03 39.01ZM79.6895 43C78.9295 43 78.2395 42.81 77.6195 42.43C76.9995 42.05 76.4995 41.55 76.1195 40.93C75.7395 40.31 75.5495 39.62 75.5495 38.86V29.74C75.5495 28.98 75.7395 28.29 76.1195 27.67C76.4995 27.05 76.9995 26.55 77.6195 26.17C78.2395 25.79 78.9295 25.6 79.6895 25.6H89.0795C89.8395 25.6 90.5295 25.79 91.1495 26.17C91.7895 26.55 92.2895 27.05 92.6495 27.67C93.0295 28.29 93.2195 28.98 93.2195 29.74V36.28H79.4795V38.71C79.4795 38.81 79.5095 38.9 79.5695 38.98C79.6495 39.04 79.7395 39.07 79.8395 39.07H93.2195V43H79.6895ZM79.4795 32.74H89.2895V29.89C89.2895 29.79 89.2495 29.71 89.1695 29.65C89.1095 29.57 89.0295 29.53 88.9295 29.53H79.8395C79.7395 29.53 79.6495 29.57 79.5695 29.65C79.5095 29.71 79.4795 29.79 79.4795 29.89V32.74ZM96.1752 43V29.74C96.1752 28.98 96.3652 28.29 96.7452 27.67C97.1252 27.05 97.6252 26.55 98.2452 26.17C98.8852 25.79 99.5752 25.6 100.315 25.6H109.975V29.53H100.465C100.365 29.53 100.275 29.57 100.195 29.65C100.135 29.71 100.105 29.79 100.105 29.89V43H96.1752ZM125.219 43C124.439 43 123.739 42.81 123.119 42.43C122.499 42.05 121.999 41.55 121.619 40.93C121.239 40.31 121.049 39.62 121.049 38.86V37.57H124.979V38.71C124.979 38.81 125.009 38.9 125.069 38.98C125.149 39.04 125.239 39.07 125.339 39.07H138.149C138.249 39.07 138.339 39.04 138.419 38.98C138.499 38.9 138.539 38.81 138.539 38.71V34.39C138.539 34.29 138.499 34.21 138.419 34.15C138.339 34.07 138.249 34.03 138.149 34.03H124.769V30.1H137.309C137.409 30.1 137.489 30.07 137.549 30.01C137.629 29.93 137.669 29.84 137.669 29.74V25.69C137.669 25.59 137.629 25.51 137.549 25.45C137.489 25.37 137.409 25.33 137.309 25.33H125.339C125.239 25.33 125.149 25.37 125.069 25.45C125.009 25.51 124.979 25.59 124.979 25.69V27.1H121.049V25.54C121.049 24.76 121.239 24.06 121.619 23.44C121.999 22.82 122.499 22.33 123.119 21.97C123.739 21.59 124.439 21.4 125.219 21.4H137.459C138.239 21.4 138.939 21.59 139.559 21.97C140.179 22.33 140.669 22.82 141.029 23.44C141.409 24.06 141.599 24.76 141.599 25.54V29.92C141.599 30.16 141.579 30.41 141.539 30.67C141.499 30.91 141.439 31.14 141.359 31.36C141.719 31.74 141.989 32.19 142.169 32.71C142.369 33.21 142.469 33.72 142.469 34.24V38.86C142.469 39.62 142.279 40.31 141.899 40.93C141.519 41.55 141.019 42.05 140.399 42.43C139.779 42.81 139.089 43 138.329 43H125.219ZM145.984 43V21.4H163.384C164.144 21.4 164.844 21.59 165.484 21.97C166.124 22.35 166.634 22.86 167.014 23.5C167.394 24.12 167.584 24.81 167.584 25.57V38.83C167.584 39.59 167.394 40.29 167.014 40.93C166.634 41.55 166.124 42.05 165.484 42.43C164.844 42.81 164.144 43 163.384 43H145.984ZM150.274 39.01H163.204C163.304 39.01 163.394 38.98 163.474 38.92C163.554 38.84 163.594 38.75 163.594 38.65V25.75C163.594 25.65 163.554 25.57 163.474 25.51C163.394 25.43 163.304 25.39 163.204 25.39H150.274C150.174 25.39 150.084 25.43 150.004 25.51C149.944 25.57 149.914 25.65 149.914 25.75V38.65C149.914 38.75 149.944 38.84 150.004 38.92C150.084 38.98 150.174 39.01 150.274 39.01ZM180.144 43V21.4H184.134V30.19H189.204L196.584 21.4H200.904V22.54L192.804 32.2L200.934 41.86V43H196.584L189.204 34.21H184.134V43H180.144ZM208.07 43C207.31 43 206.61 42.81 205.97 42.43C205.35 42.05 204.85 41.55 204.47 40.93C204.11 40.31 203.93 39.62 203.93 38.86V25.6H207.86V38.71C207.86 38.81 207.89 38.9 207.95 38.98C208.03 39.04 208.12 39.07 208.22 39.07H217.31C217.41 39.07 217.49 39.04 217.55 38.98C217.63 38.9 217.67 38.81 217.67 38.71V25.6H221.6V38.86C221.6 39.62 221.41 40.31 221.03 40.93C220.67 41.55 220.18 42.05 219.56 42.43C218.94 42.81 218.24 43 217.46 43H208.07ZM213.86 23.83V19.87H217.82V23.83H213.86ZM207.77 23.83V19.87H211.7V23.83H207.77ZM224.819 43V25.6H238.349C239.109 25.6 239.799 25.79 240.419 26.17C241.059 26.55 241.559 27.05 241.919 27.67C242.299 28.29 242.489 28.98 242.489 29.74V43H238.559V29.89C238.559 29.79 238.519 29.71 238.439 29.65C238.379 29.57 238.299 29.53 238.199 29.53H229.109C229.009 29.53 228.919 29.57 228.839 29.65C228.779 29.71 228.749 29.79 228.749 29.89V43H224.819ZM249.258 43C248.498 43 247.808 42.81 247.188 42.43C246.568 42.05 246.068 41.55 245.688 40.93C245.308 40.31 245.118 39.62 245.118 38.86V38.2H249.048V38.71C249.048 38.81 249.078 38.9 249.138 38.98C249.218 39.04 249.308 39.07 249.408 39.07H258.498C258.598 39.07 258.678 39.04 258.738 38.98C258.818 38.9 258.858 38.81 258.858 38.71V36.64C258.858 36.54 258.818 36.46 258.738 36.4C258.678 36.32 258.598 36.28 258.498 36.28H249.258C248.498 36.28 247.808 36.09 247.188 35.71C246.568 35.33 246.068 34.83 245.688 34.21C245.308 33.59 245.118 32.9 245.118 32.14V29.74C245.118 28.98 245.308 28.29 245.688 27.67C246.068 27.05 246.568 26.55 247.188 26.17C247.808 25.79 248.498 25.6 249.258 25.6H258.648C259.428 25.6 260.128 25.79 260.748 26.17C261.368 26.55 261.868 27.05 262.248 27.67C262.628 28.29 262.818 28.98 262.818 29.74V30.4H258.858V29.89C258.858 29.79 258.818 29.71 258.738 29.65C258.678 29.57 258.598 29.53 258.498 29.53H249.408C249.308 29.53 249.218 29.57 249.138 29.65C249.078 29.71 249.048 29.79 249.048 29.89V31.96C249.048 32.06 249.078 32.15 249.138 32.23C249.218 32.29 249.308 32.32 249.408 32.32H258.648C259.428 32.32 260.128 32.51 260.748 32.89C261.368 33.27 261.868 33.77 262.248 34.39C262.628 35.01 262.818 35.7 262.818 36.46V38.86C262.818 39.62 262.628 40.31 262.248 40.93C261.868 41.55 261.368 42.05 260.748 42.43C260.128 42.81 259.428 43 258.648 43H249.258ZM269.974 43C269.214 43 268.524 42.81 267.904 42.43C267.284 42.05 266.784 41.55 266.404 40.93C266.024 40.31 265.834 39.62 265.834 38.86V20.26H269.764V25.6H276.544V29.53H269.764V38.71C269.764 38.81 269.794 38.9 269.854 38.98C269.934 39.04 270.024 39.07 270.124 39.07H276.544V43H269.974ZM283.098 43C282.338 43 281.648 42.81 281.028 42.43C280.408 42.05 279.908 41.55 279.528 40.93C279.148 40.31 278.958 39.62 278.958 38.86V19.87H282.918V38.71C282.918 38.81 282.948 38.9 283.008 38.98C283.088 39.04 283.178 39.07 283.278 39.07H286.608V43H283.098ZM292.941 43C292.181 43 291.491 42.81 290.871 42.43C290.251 42.05 289.751 41.55 289.371 40.93C288.991 40.31 288.801 39.62 288.801 38.86V29.74C288.801 28.98 288.991 28.29 289.371 27.67C289.751 27.05 290.251 26.55 290.871 26.17C291.491 25.79 292.181 25.6 292.941 25.6H302.331C303.091 25.6 303.781 25.79 304.401 26.17C305.041 26.55 305.541 27.05 305.901 27.67C306.281 28.29 306.471 28.98 306.471 29.74V36.28H292.731V38.71C292.731 38.81 292.761 38.9 292.821 38.98C292.901 39.04 292.991 39.07 293.091 39.07H306.471V43H292.941ZM292.731 32.74H302.541V29.89C302.541 29.79 302.501 29.71 302.421 29.65C302.361 29.57 302.281 29.53 302.181 29.53H293.091C292.991 29.53 292.901 29.57 292.821 29.65C292.761 29.71 292.731 29.79 292.731 29.89V32.74ZM309.427 43V29.74C309.427 28.98 309.617 28.29 309.997 27.67C310.377 27.05 310.877 26.55 311.497 26.17C312.137 25.79 312.827 25.6 313.567 25.6H323.227V29.53H313.717C313.617 29.53 313.527 29.57 313.447 29.65C313.387 29.71 313.357 29.79 313.357 29.89V43H309.427ZM325.161 29.47V25.54H329.091V29.47H325.161ZM325.161 43V39.07H329.091V43H325.161ZM341.51 43V21.43H358.91C359.67 21.43 360.37 21.62 361.01 22C361.65 22.38 362.16 22.89 362.54 23.53C362.92 24.15 363.11 24.84 363.11 25.6V31.42C363.11 32.18 362.92 32.88 362.54 33.52C362.16 34.16 361.65 34.67 361.01 35.05C360.37 35.41 359.67 35.59 358.91 35.59L345.47 35.62V43H341.51ZM345.83 31.6H358.73C358.83 31.6 358.92 31.57 359 31.51C359.08 31.45 359.12 31.37 359.12 31.27V25.75C359.12 25.65 359.08 25.57 359 25.51C358.92 25.43 358.83 25.39 358.73 25.39H345.83C345.73 25.39 345.64 25.43 345.56 25.51C345.5 25.57 345.47 25.65 345.47 25.75V31.27C345.47 31.37 345.5 31.45 345.56 31.51C345.64 31.57 345.73 31.6 345.83 31.6ZM369.261 43C368.501 43 367.801 42.81 367.161 42.43C366.541 42.05 366.041 41.55 365.661 40.93C365.301 40.31 365.121 39.62 365.121 38.86V32.32H378.861V29.89C378.861 29.79 378.821 29.71 378.741 29.65C378.681 29.57 378.601 29.53 378.501 29.53H365.121V25.6H378.651C379.411 25.6 380.101 25.79 380.721 26.17C381.361 26.55 381.861 27.05 382.221 27.67C382.601 28.29 382.791 28.98 382.791 29.74V43H369.261ZM369.411 39.07H378.861V35.86H369.051V38.71C369.051 38.81 369.081 38.9 369.141 38.98C369.221 39.04 369.311 39.07 369.411 39.07ZM390.121 43C389.361 43 388.661 42.81 388.021 42.43C387.401 42.05 386.901 41.55 386.521 40.93C386.161 40.31 385.981 39.62 385.981 38.86V25.6H389.911V38.71C389.911 38.81 389.941 38.9 390.001 38.98C390.081 39.04 390.171 39.07 390.271 39.07H399.361C399.461 39.07 399.541 39.04 399.601 38.98C399.681 38.9 399.721 38.81 399.721 38.71V25.6H403.651V38.86C403.651 39.62 403.461 40.31 403.081 40.93C402.721 41.55 402.231 42.05 401.611 42.43C400.991 42.81 400.291 43 399.511 43H390.121ZM410.95 43C410.19 43 409.5 42.81 408.88 42.43C408.26 42.05 407.76 41.55 407.38 40.93C407 40.31 406.81 39.62 406.81 38.86V19.87H410.77V38.71C410.77 38.81 410.8 38.9 410.86 38.98C410.94 39.04 411.03 39.07 411.13 39.07H414.46V43H410.95Z" fill="white"/>
<defs>
<filter id="filter0_d_361_3" x="0" y="0" width="476.269" height="79" filterUnits="userSpaceOnUse" color-interpolation-filters="sRGB">
<feFlood flood-opacity="0" result="BackgroundImageFix"/>
<feColorMatrix in="SourceAlpha" type="matrix" values="0 0 0 0 0 0 0 0 0 0 0 0 0 0 0 0 0 0 127 0" result="hardAlpha"/>
<feOffset dx="4" dy="4"/>
<feGaussianBlur stdDeviation="2"/>
<feComposite in2="hardAlpha" operator="out"/>
<feColorMatrix type="matrix" values="0 0 0 0 0 0 0 0 0 0 0 0 0 0 0 0 0 0 0.25 0"/>
<feBlend mode="normal" in2="BackgroundImageFix" result="effect1_dropShadow_361_3"/>
<feBlend mode="normal" in="SourceGraphic" in2="effect1_dropShadow_361_3" result="shape"/>
</filter>
</defs>
</svg>
