<svg width="466" height="67" viewBox="0 0 466 67" fill="none" xmlns="http://www.w3.org/2000/svg">
<g filter="url(#filter0_d_362_13)">
<path d="M40.843 6.78161L441.931 0L457.5 52L0 59L40.843 6.78161Z" fill="#23CF51"/>
</g>
<path d="M42.74 42V20.4H60.14C60.9 20.4 61.6 20.59 62.24 20.97C62.88 21.35 63.39 21.86 63.77 22.5C64.15 23.12 64.34 23.81 64.34 24.57V37.83C64.34 38.59 64.15 39.29 63.77 39.93C63.39 40.55 62.88 41.05 62.24 41.43C61.6 41.81 60.9 42 60.14 42H42.74ZM47.03 38.01H59.96C60.06 38.01 60.15 37.98 60.23 37.92C60.31 37.84 60.35 37.75 60.35 37.65V24.75C60.35 24.65 60.31 24.57 60.23 24.51C60.15 24.43 60.06 24.39 59.96 24.39H47.03C46.93 24.39 46.84 24.43 46.76 24.51C46.7 24.57 46.67 24.65 46.67 24.75V37.65C46.67 37.75 46.7 37.84 46.76 37.92C46.84 37.98 46.93 38.01 47.03 38.01ZM71.6895 42C70.9295 42 70.2395 41.81 69.6195 41.43C68.9995 41.05 68.4995 40.55 68.1195 39.93C67.7395 39.31 67.5495 38.62 67.5495 37.86V28.74C67.5495 27.98 67.7395 27.29 68.1195 26.67C68.4995 26.05 68.9995 25.55 69.6195 25.17C70.2395 24.79 70.9295 24.6 71.6895 24.6H81.0795C81.8395 24.6 82.5295 24.79 83.1495 25.17C83.7895 25.55 84.2895 26.05 84.6495 26.67C85.0295 27.29 85.2195 27.98 85.2195 28.74V35.28H71.4795V37.71C71.4795 37.81 71.5095 37.9 71.5695 37.98C71.6495 38.04 71.7395 38.07 71.8395 38.07H85.2195V42H71.6895ZM71.4795 31.74H81.2895V28.89C81.2895 28.79 81.2495 28.71 81.1695 28.65C81.1095 28.57 81.0295 28.53 80.9295 28.53H71.8395C71.7395 28.53 71.6495 28.57 71.5695 28.65C71.5095 28.71 71.4795 28.79 71.4795 28.89V31.74ZM88.1752 42V28.74C88.1752 27.98 88.3652 27.29 88.7452 26.67C89.1252 26.05 89.6252 25.55 90.2452 25.17C90.8852 24.79 91.5752 24.6 92.3152 24.6H101.975V28.53H92.4652C92.3652 28.53 92.2752 28.57 92.1952 28.65C92.1352 28.71 92.1052 28.79 92.1052 28.89V42H88.1752ZM113.199 42V24.57C113.199 23.81 113.389 23.12 113.769 22.5C114.149 21.86 114.649 21.35 115.269 20.97C115.909 20.59 116.609 20.4 117.369 20.4H130.599C131.359 20.4 132.059 20.59 132.699 20.97C133.339 21.35 133.849 21.86 134.229 22.5C134.609 23.12 134.799 23.81 134.799 24.57V42H130.809V34.74H117.159V42H113.199ZM117.159 30.78H130.809V24.75C130.809 24.65 130.769 24.57 130.689 24.51C130.609 24.43 130.519 24.39 130.419 24.39H117.519C117.419 24.39 117.329 24.43 117.249 24.51C117.189 24.57 117.159 24.65 117.159 24.75V30.78ZM142.237 42C141.477 42 140.787 41.81 140.167 41.43C139.547 41.05 139.047 40.55 138.667 39.93C138.287 39.31 138.097 38.62 138.097 37.86V18.87H142.057V37.71C142.057 37.81 142.087 37.9 142.147 37.98C142.227 38.04 142.317 38.07 142.417 38.07H145.747V42H142.237ZM152.227 42C151.467 42 150.777 41.81 150.157 41.43C149.537 41.05 149.037 40.55 148.657 39.93C148.277 39.31 148.087 38.62 148.087 37.86V18.87H152.047V37.71C152.047 37.81 152.077 37.9 152.137 37.98C152.217 38.04 152.307 38.07 152.407 38.07H155.737V42H152.227ZM162.07 42C161.31 42 160.62 41.81 160 41.43C159.38 41.05 158.88 40.55 158.5 39.93C158.12 39.31 157.93 38.62 157.93 37.86V28.74C157.93 27.98 158.12 27.29 158.5 26.67C158.88 26.05 159.38 25.55 160 25.17C160.62 24.79 161.31 24.6 162.07 24.6H171.46C172.22 24.6 172.91 24.79 173.53 25.17C174.17 25.55 174.67 26.05 175.03 26.67C175.41 27.29 175.6 27.98 175.6 28.74V35.28H161.86V37.71C161.86 37.81 161.89 37.9 161.95 37.98C162.03 38.04 162.12 38.07 162.22 38.07H175.6V42H162.07ZM161.86 31.74H171.67V28.89C171.67 28.79 171.63 28.71 171.55 28.65C171.49 28.57 171.41 28.53 171.31 28.53H162.22C162.12 28.53 162.03 28.57 161.95 28.65C161.89 28.71 161.86 28.79 161.86 28.89V31.74ZM182.547 42C181.787 42 181.097 41.81 180.477 41.43C179.857 41.05 179.357 40.55 178.977 39.93C178.597 39.31 178.407 38.62 178.407 37.86V37.2H182.337V37.71C182.337 37.81 182.367 37.9 182.427 37.98C182.507 38.04 182.597 38.07 182.697 38.07H191.787C191.887 38.07 191.967 38.04 192.027 37.98C192.107 37.9 192.147 37.81 192.147 37.71V35.64C192.147 35.54 192.107 35.46 192.027 35.4C191.967 35.32 191.887 35.28 191.787 35.28H182.547C181.787 35.28 181.097 35.09 180.477 34.71C179.857 34.33 179.357 33.83 178.977 33.21C178.597 32.59 178.407 31.9 178.407 31.14V28.74C178.407 27.98 178.597 27.29 178.977 26.67C179.357 26.05 179.857 25.55 180.477 25.17C181.097 24.79 181.787 24.6 182.547 24.6H191.937C192.717 24.6 193.417 24.79 194.037 25.17C194.657 25.55 195.157 26.05 195.537 26.67C195.917 27.29 196.107 27.98 196.107 28.74V29.4H192.147V28.89C192.147 28.79 192.107 28.71 192.027 28.65C191.967 28.57 191.887 28.53 191.787 28.53H182.697C182.597 28.53 182.507 28.57 182.427 28.65C182.367 28.71 182.337 28.79 182.337 28.89V30.96C182.337 31.06 182.367 31.15 182.427 31.23C182.507 31.29 182.597 31.32 182.697 31.32H191.937C192.717 31.32 193.417 31.51 194.037 31.89C194.657 32.27 195.157 32.77 195.537 33.39C195.917 34.01 196.107 34.7 196.107 35.46V37.86C196.107 38.62 195.917 39.31 195.537 39.93C195.157 40.55 194.657 41.05 194.037 41.43C193.417 41.81 192.717 42 191.937 42H182.547ZM198.509 42V18.9H202.439V31.32H205.529L211.739 24.6H215.939V25.68L209.009 33.3L215.909 40.92V42H211.739L205.529 35.28H202.439V42H198.509ZM221.953 42C221.193 42 220.503 41.81 219.883 41.43C219.263 41.05 218.763 40.55 218.383 39.93C218.003 39.31 217.813 38.62 217.813 37.86V28.74C217.813 27.98 218.003 27.29 218.383 26.67C218.763 26.05 219.263 25.55 219.883 25.17C220.503 24.79 221.193 24.6 221.953 24.6H231.343C232.103 24.6 232.793 24.79 233.413 25.17C234.053 25.55 234.553 26.05 234.913 26.67C235.293 27.29 235.483 27.98 235.483 28.74V37.86C235.483 38.62 235.293 39.31 234.913 39.93C234.553 40.55 234.063 41.05 233.443 41.43C232.823 41.81 232.123 42 231.343 42H221.953ZM222.103 38.07H231.193C231.293 38.07 231.373 38.04 231.433 37.98C231.513 37.9 231.553 37.81 231.553 37.71V28.89C231.553 28.79 231.513 28.71 231.433 28.65C231.373 28.57 231.293 28.53 231.193 28.53H222.103C222.003 28.53 221.913 28.57 221.833 28.65C221.773 28.71 221.743 28.79 221.743 28.89V37.71C221.743 37.81 221.773 37.9 221.833 37.98C221.913 38.04 222.003 38.07 222.103 38.07ZM227.713 22.86V18.9H231.673V22.86H227.713ZM221.623 22.86V18.9H225.553V22.86H221.623ZM238.675 42V24.6H252.205C252.965 24.6 253.655 24.79 254.275 25.17C254.915 25.55 255.415 26.05 255.775 26.67C256.155 27.29 256.345 27.98 256.345 28.74V42H252.415V28.89C252.415 28.79 252.375 28.71 252.295 28.65C252.235 28.57 252.155 28.53 252.055 28.53H242.965C242.865 28.53 242.775 28.57 242.695 28.65C242.635 28.71 242.605 28.79 242.605 28.89V42H238.675ZM259.563 42V24.6H273.093C273.853 24.6 274.543 24.79 275.163 25.17C275.803 25.55 276.303 26.05 276.663 26.67C277.043 27.29 277.233 27.98 277.233 28.74V42H273.303V28.89C273.303 28.79 273.263 28.71 273.183 28.65C273.123 28.57 273.043 28.53 272.943 28.53H263.853C263.753 28.53 263.663 28.57 263.583 28.65C263.523 28.71 263.493 28.79 263.493 28.89V42H259.563ZM283.887 42C283.127 42 282.437 41.81 281.817 41.43C281.197 41.05 280.697 40.55 280.317 39.93C279.937 39.31 279.747 38.62 279.747 37.86V28.74C279.747 27.98 279.937 27.29 280.317 26.67C280.697 26.05 281.197 25.55 281.817 25.17C282.437 24.79 283.127 24.6 283.887 24.6H293.277C294.037 24.6 294.727 24.79 295.347 25.17C295.987 25.55 296.487 26.05 296.847 26.67C297.227 27.29 297.417 27.98 297.417 28.74V35.28H283.677V37.71C283.677 37.81 283.707 37.9 283.767 37.98C283.847 38.04 283.937 38.07 284.037 38.07H297.417V42H283.887ZM283.677 31.74H293.487V28.89C293.487 28.79 293.447 28.71 293.367 28.65C293.307 28.57 293.227 28.53 293.127 28.53H284.037C283.937 28.53 283.847 28.57 283.767 28.65C283.707 28.71 283.677 28.79 283.677 28.89V31.74ZM300.373 42V28.74C300.373 27.98 300.563 27.29 300.943 26.67C301.323 26.05 301.823 25.55 302.443 25.17C303.083 24.79 303.773 24.6 304.513 24.6H314.173V28.53H304.663C304.563 28.53 304.473 28.57 304.393 28.65C304.333 28.71 304.303 28.79 304.303 28.89V42H300.373ZM316.106 28.47V24.54H320.036V28.47H316.106ZM316.106 42V38.07H320.036V42H316.106ZM332.455 42V20.43H349.855C350.615 20.43 351.315 20.62 351.955 21C352.595 21.38 353.105 21.89 353.485 22.53C353.865 23.15 354.055 23.84 354.055 24.6V30.42C354.055 31.18 353.865 31.88 353.485 32.52C353.105 33.16 352.595 33.67 351.955 34.05C351.315 34.41 350.615 34.59 349.855 34.59L336.415 34.62V42H332.455ZM336.775 30.6H349.675C349.775 30.6 349.865 30.57 349.945 30.51C350.025 30.45 350.065 30.37 350.065 30.27V24.75C350.065 24.65 350.025 24.57 349.945 24.51C349.865 24.43 349.775 24.39 349.675 24.39H336.775C336.675 24.39 336.585 24.43 336.505 24.51C336.445 24.57 336.415 24.65 336.415 24.75V30.27C336.415 30.37 336.445 30.45 336.505 30.51C336.585 30.57 336.675 30.6 336.775 30.6ZM356.126 42V18.9H360.056V24.6H369.656C370.416 24.6 371.106 24.79 371.726 25.17C372.346 25.55 372.846 26.05 373.226 26.67C373.606 27.29 373.796 27.98 373.796 28.74V42H369.866V28.89C369.866 28.79 369.826 28.71 369.746 28.65C369.686 28.57 369.606 28.53 369.506 28.53H360.416C360.316 28.53 360.226 28.57 360.146 28.65C360.086 28.71 360.056 28.79 360.056 28.89V42H356.126ZM376.134 42V24.6H380.064V42H376.134ZM376.134 22.86V18.9H380.064V22.86H376.134ZM387.54 42C386.78 42 386.09 41.81 385.47 41.43C384.85 41.05 384.35 40.55 383.97 39.93C383.59 39.31 383.4 38.62 383.4 37.86V18.87H387.36V37.71C387.36 37.81 387.39 37.9 387.45 37.98C387.53 38.04 387.62 38.07 387.72 38.07H391.05V42H387.54ZM393.8 42V24.6H397.73V42H393.8ZM393.8 22.86V18.9H397.73V22.86H393.8ZM400.686 48.9V24.6H414.216C414.976 24.6 415.666 24.79 416.286 25.17C416.926 25.55 417.426 26.05 417.786 26.67C418.166 27.29 418.356 27.98 418.356 28.74V37.86C418.356 38.62 418.166 39.31 417.786 39.93C417.426 40.55 416.926 41.05 416.286 41.43C415.666 41.81 414.976 42 414.216 42H404.616V48.9H400.686ZM404.976 38.07H414.066C414.166 38.07 414.246 38.04 414.306 37.98C414.386 37.9 414.426 37.81 414.426 37.71V28.89C414.426 28.79 414.386 28.71 414.306 28.65C414.246 28.57 414.166 28.53 414.066 28.53H404.976C404.876 28.53 404.786 28.57 404.706 28.65C404.646 28.71 404.616 28.79 404.616 28.89V37.71C404.616 37.81 404.646 37.9 404.706 37.98C404.786 38.04 404.876 38.07 404.976 38.07ZM420.608 48.9V24.6H434.138C434.898 24.6 435.588 24.79 436.208 25.17C436.848 25.55 437.348 26.05 437.708 26.67C438.088 27.29 438.278 27.98 438.278 28.74V37.86C438.278 38.62 438.088 39.31 437.708 39.93C437.348 40.55 436.848 41.05 436.208 41.43C435.588 41.81 434.898 42 434.138 42H424.538V48.9H420.608ZM424.898 38.07H433.988C434.088 38.07 434.168 38.04 434.228 37.98C434.308 37.9 434.348 37.81 434.348 37.71V28.89C434.348 28.79 434.308 28.71 434.228 28.65C434.168 28.57 434.088 28.53 433.988 28.53H424.898C424.798 28.53 424.708 28.57 424.628 28.65C424.568 28.71 424.538 28.79 424.538 28.89V37.71C424.538 37.81 424.568 37.9 424.628 37.98C424.708 38.04 424.798 38.07 424.898 38.07Z" fill="white"/>
<defs>
<filter id="filter0_d_362_13" x="0" y="0" width="465.5" height="67" filterUnits="userSpaceOnUse" color-interpolation-filters="sRGB">
<feFlood flood-opacity="0" result="BackgroundImageFix"/>
<feColorMatrix in="SourceAlpha" type="matrix" values="0 0 0 0 0 0 0 0 0 0 0 0 0 0 0 0 0 0 127 0" result="hardAlpha"/>
<feOffset dx="4" dy="4"/>
<feGaussianBlur stdDeviation="2"/>
<feComposite in2="hardAlpha" operator="out"/>
<feColorMatrix type="matrix" values="0 0 0 0 0 0 0 0 0 0 0 0 0 0 0 0 0 0 0.25 0"/>
<feBlend mode="normal" in2="BackgroundImageFix" result="effect1_dropShadow_362_13"/>
<feBlend mode="normal" in="SourceGraphic" in2="effect1_dropShadow_362_13" result="shape"/>
</filter>
</defs>
</svg>
